<svg version="1.2" xmlns="http://www.w3.org/2000/svg" viewBox="0 0 445 284" width="445" height="284">
	<defs>
		<clipPath clipPathUnits="userSpaceOnUse" id="cp1">
			<path d="m0 0h445v252h-445z"/>
		</clipPath>
	</defs>
	<style>
		.s0 { fill: #1b262f } 
		.s1 { fill: #2e3f4d } 
		.s2 { fill: #ba4270 } 
		.s3 { fill: #527695 } 
		.s4 { fill: #36536b } 
		.s5 { fill: #fbfcfe } 
	</style>
	<g id="Group 14">
		<g id="Rectangle">
			<path fill-rule="evenodd" class="s0" d="m8 0h429c4.42 0 8 3.58 8 8v268c0 4.42-3.58 8-8 8h-429c-4.42 0-8-3.58-8-8v-268c0-4.42 3.58-8 8-8z"/>
		</g>
		<g id="Clip-Path: Group 13" clip-path="url(#cp1)">
			<g id="Group 13">
				<g id="Group 11">
					<path id="Rectangle Copy" class="s1" d="m0 8c0-4.42 3.58-8 8-8h429c4.42 0 8 3.58 8 8v32h-445z"/>
					<g id="Group 10">
						<path id="Oval" fill-rule="evenodd" class="s2" d="m24 28c-4.42 0-8-3.58-8-8 0-4.42 3.58-8 8-8 4.42 0 8 3.58 8 8 0 4.42-3.58 8-8 8z"/>
						<path id="Oval Copy" fill-rule="evenodd" class="s3" d="m46.4 28c-4.42 0-8-3.58-8-8 0-4.42 3.58-8 8-8 4.42 0 8 3.58 8 8 0 4.42-3.58 8-8 8z"/>
						<path id="Oval Copy 2" fill-rule="evenodd" class="s4" d="m68.8 28c-4.42 0-8-3.58-8-8 0-4.42 3.58-8 8-8 4.42 0 8 3.58 8 8 0 4.42-3.58 8-8 8z"/>
					</g>
				</g>
				<path id="&lt;form id=&quot;form-id&quot; m" class="s5" d="m34.58 82.79l-0.34 0.11 0.34 0.11 3.88 1.5v1.25l-5.38-2.41v-0.93l5.38-2.4v1.25zm8.09 4.21v-5.96h-1.89v-0.91h1.89v-0.49q0-0.66 0.19-1.15 0.2-0.5 0.55-0.84 0.35-0.33 0.85-0.51 0.49-0.17 1.1-0.17 0.42 0 0.81 0.07 0.4 0.07 0.82 0.18l-0.14 0.97q-0.26-0.09-0.61-0.15-0.34-0.07-0.73-0.07-0.83 0.01-1.25 0.42-0.41 0.41-0.41 1.25v0.49h2.65v0.91h-2.65v5.96zm5.73-3.5q0-0.74 0.21-1.38 0.22-0.64 0.62-1.11 0.4-0.47 0.98-0.74 0.58-0.27 1.3-0.27 0.73 0 1.31 0.27 0.58 0.27 0.98 0.74 0.41 0.47 0.63 1.11 0.21 0.64 0.21 1.38v0.14q0 0.74-0.21 1.38-0.22 0.63-0.63 1.1-0.4 0.47-0.97 0.74-0.58 0.26-1.31 0.26-0.73 0-1.31-0.26-0.58-0.27-0.98-0.74-0.4-0.47-0.62-1.1-0.21-0.64-0.21-1.38zm1.17 0.14q0 0.51 0.12 0.97 0.12 0.46 0.36 0.8 0.25 0.35 0.62 0.56 0.37 0.2 0.85 0.2 0.49 0 0.85-0.2 0.37-0.21 0.61-0.56 0.25-0.34 0.37-0.8 0.12-0.46 0.12-0.97v-0.14q0-0.5-0.13-0.96-0.12-0.46-0.37-0.81-0.24-0.35-0.61-0.56-0.36-0.2-0.85-0.2-0.49 0-0.85 0.2-0.36 0.21-0.61 0.56-0.24 0.35-0.36 0.81-0.12 0.46-0.12 0.96zm11.46-3.64q0.17 0 0.35 0.01 0.17 0.01 0.33 0.03 0.17 0.02 0.3 0.06 0.14 0.03 0.23 0.07l-0.16 1.14q-0.34-0.07-0.65-0.1-0.31-0.04-0.64-0.04-0.83 0-1.34 0.37-0.51 0.38-0.75 1.05v4.41h-1.18v-6.87h1.11l0.06 1.09q0.42-0.57 1-0.89 0.59-0.33 1.34-0.33zm3.85 0.13l0.03 0.64q0.21-0.36 0.55-0.56 0.34-0.2 0.82-0.21 0.95 0 1.27 0.74 0.2-0.33 0.53-0.53 0.34-0.2 0.81-0.21 0.76 0 1.16 0.46 0.41 0.47 0.41 1.41v5.13h-1.12v-5.15q0-0.86-0.79-0.85-0.21 0-0.36 0.05-0.16 0.06-0.26 0.16-0.1 0.1-0.16 0.23-0.05 0.13-0.07 0.27v5.29h-1.12v-5.15q0-0.41-0.18-0.64-0.19-0.22-0.59-0.21-0.37 0-0.57 0.14-0.2 0.15-0.3 0.39v5.47h-1.11v-6.87zm15.26 0h3.51v5.85h2.24v1.02h-5.75v-1.02h2.33v-4.83h-2.33zm2.18-1.8q0-0.29 0.17-0.49 0.18-0.2 0.53-0.21 0.35 0.01 0.53 0.21 0.18 0.2 0.18 0.49 0 0.28-0.18 0.47-0.18 0.19-0.53 0.19-0.35 0-0.53-0.19-0.17-0.19-0.17-0.47zm5.22 5.18q0-0.77 0.19-1.41 0.19-0.65 0.55-1.11 0.36-0.47 0.87-0.73 0.51-0.26 1.14-0.26 0.61 0 1.07 0.21 0.46 0.21 0.8 0.6v-3.56h1.17v9.75h-1.08l-0.05-0.73q-0.34 0.42-0.82 0.64-0.47 0.21-1.11 0.21-0.62 0-1.13-0.26-0.5-0.27-0.85-0.74-0.36-0.47-0.56-1.1-0.19-0.64-0.19-1.38zm1.17 0.13q0 0.5 0.11 0.95 0.11 0.46 0.33 0.8 0.23 0.34 0.58 0.54 0.35 0.2 0.83 0.2 0.3 0 0.54-0.07 0.25-0.07 0.44-0.19 0.2-0.14 0.35-0.32 0.15-0.18 0.27-0.4v-3.19q-0.23-0.42-0.62-0.69-0.38-0.27-0.96-0.27-0.5 0-0.85 0.21-0.35 0.2-0.58 0.55-0.22 0.34-0.33 0.8-0.11 0.45-0.11 0.95zm12.52-1.59h-5.67v-1.03h5.67zm0 2.64h-5.67v-1.02h5.67zm4.25-6.74l-0.14 2.35h-0.82v-2.25-0.79h0.96zm2.26 0l-0.13 2.35h-0.82l0.01-2.25v-0.79h0.95zm5.19 9.06v-5.96h-1.89v-0.91h1.89v-0.49q0-0.66 0.19-1.15 0.2-0.5 0.55-0.84 0.35-0.33 0.85-0.51 0.49-0.17 1.1-0.17 0.42 0 0.82 0.07 0.39 0.07 0.81 0.18l-0.14 0.97q-0.26-0.09-0.61-0.15-0.34-0.07-0.73-0.07-0.83 0.01-1.25 0.42-0.41 0.41-0.41 1.25v0.49h2.65v0.91h-2.65v5.96zm5.73-3.5q0-0.74 0.21-1.38 0.22-0.64 0.62-1.11 0.4-0.47 0.98-0.74 0.58-0.27 1.3-0.27 0.73 0 1.31 0.27 0.59 0.27 0.98 0.74 0.41 0.47 0.63 1.11 0.21 0.64 0.21 1.38v0.14q0 0.74-0.21 1.38-0.22 0.63-0.63 1.1-0.39 0.47-0.97 0.74-0.58 0.26-1.3 0.26-0.73 0-1.32-0.26-0.58-0.27-0.98-0.74-0.4-0.47-0.62-1.1-0.21-0.64-0.21-1.38zm1.17 0.14q0 0.51 0.12 0.97 0.12 0.46 0.36 0.8 0.25 0.35 0.62 0.56 0.37 0.2 0.86 0.2 0.48 0 0.84-0.2 0.37-0.21 0.61-0.56 0.25-0.34 0.37-0.8 0.12-0.46 0.12-0.97v-0.14q0-0.5-0.13-0.96-0.12-0.46-0.37-0.81-0.24-0.35-0.61-0.56-0.36-0.2-0.85-0.2-0.49 0-0.85 0.2-0.36 0.21-0.61 0.56-0.24 0.35-0.36 0.81-0.12 0.46-0.12 0.96zm11.46-3.64q0.17 0 0.35 0.01 0.18 0.01 0.33 0.03 0.17 0.02 0.3 0.06 0.14 0.03 0.23 0.07l-0.16 1.14q-0.34-0.07-0.65-0.1-0.31-0.04-0.64-0.04-0.83 0-1.34 0.37-0.51 0.38-0.75 1.05v4.41h-1.18v-6.87h1.12l0.05 1.09q0.42-0.57 1.01-0.89 0.59-0.33 1.33-0.33zm3.85 0.13l0.03 0.64q0.21-0.36 0.55-0.56 0.34-0.2 0.82-0.21 0.95 0 1.27 0.74 0.2-0.33 0.53-0.53 0.34-0.2 0.81-0.21 0.76 0 1.16 0.46 0.41 0.47 0.41 1.41v5.13h-1.12v-5.15q0-0.86-0.79-0.85-0.21 0-0.36 0.05-0.15 0.06-0.26 0.16-0.1 0.1-0.15 0.23-0.06 0.13-0.08 0.27v5.29h-1.12v-5.15q0-0.41-0.18-0.64-0.19-0.22-0.59-0.21-0.36 0-0.57 0.14-0.2 0.15-0.29 0.39v5.47h-1.12v-6.87zm12.4 3.3h-4.86v-0.96h4.86zm2.86-3.31h3.51v5.85h2.24v1.02h-5.75v-1.02h2.33v-4.83h-2.33zm2.18-1.8q0-0.29 0.17-0.49 0.18-0.2 0.54-0.2 0.34 0 0.52 0.2 0.18 0.2 0.18 0.49 0 0.29-0.18 0.48-0.18 0.19-0.52 0.19-0.36 0-0.54-0.19-0.17-0.19-0.17-0.48zm5.22 5.18q0-0.77 0.19-1.41 0.2-0.64 0.55-1.11 0.36-0.46 0.87-0.72 0.51-0.26 1.14-0.26 0.61 0 1.07 0.21 0.46 0.2 0.8 0.59v-3.56h1.17v9.75h-1.07l-0.06-0.72q-0.34 0.42-0.81 0.63-0.48 0.22-1.12 0.22-0.62 0-1.13-0.27-0.5-0.26-0.85-0.73-0.36-0.47-0.55-1.11-0.2-0.64-0.2-1.38zm1.17 0.14q0 0.5 0.11 0.95 0.11 0.45 0.33 0.79 0.23 0.35 0.58 0.55 0.35 0.2 0.84 0.2 0.29 0 0.54-0.07 0.24-0.07 0.43-0.2 0.2-0.13 0.35-0.31 0.16-0.19 0.27-0.41v-3.18q-0.23-0.42-0.62-0.69-0.38-0.27-0.96-0.27-0.5 0-0.85 0.2-0.35 0.2-0.58 0.55-0.22 0.35-0.33 0.8-0.11 0.45-0.11 0.95zm8.96-5.7l-0.13 2.35h-0.83l0.01-2.24v-0.8h0.95zm2.27 0l-0.14 2.35h-0.82l0.01-2.25v-0.79h0.95zm11.79 2.19l0.03 0.65q0.21-0.36 0.55-0.57 0.34-0.2 0.82-0.21 0.95 0 1.27 0.74 0.2-0.33 0.53-0.53 0.34-0.2 0.81-0.21 0.76 0 1.16 0.47 0.41 0.46 0.41 1.4v5.13h-1.12v-5.14q0-0.87-0.79-0.86-0.21 0-0.36 0.06-0.16 0.06-0.26 0.16-0.1 0.09-0.16 0.22-0.05 0.13-0.07 0.27v5.29h-1.12v-5.15q0-0.41-0.18-0.63-0.19-0.23-0.59-0.22-0.37 0-0.57 0.15-0.2 0.14-0.3 0.38v5.47h-1.11v-6.87zm10.3 7q-0.73 0-1.33-0.25-0.61-0.25-1.04-0.69-0.43-0.45-0.67-1.06-0.24-0.61-0.24-1.32v-0.27q0-0.83 0.26-1.49 0.27-0.66 0.71-1.11 0.44-0.45 1-0.7 0.57-0.24 1.16-0.24 0.74 0 1.29 0.26 0.56 0.26 0.93 0.71 0.37 0.46 0.54 1.07 0.19 0.62 0.19 1.33v0.53h-4.91q0.02 0.47 0.18 0.88 0.16 0.42 0.44 0.73 0.29 0.3 0.68 0.48 0.4 0.18 0.87 0.18 0.63 0 1.12-0.26 0.49-0.25 0.81-0.67l0.72 0.56q-0.17 0.26-0.43 0.5-0.26 0.24-0.59 0.42-0.34 0.18-0.76 0.29-0.43 0.12-0.93 0.12zm-0.15-6.16q-0.36 0-0.68 0.13-0.31 0.13-0.57 0.38-0.25 0.25-0.43 0.62-0.17 0.36-0.24 0.84h3.69v-0.09q-0.02-0.35-0.13-0.68-0.11-0.34-0.32-0.61-0.22-0.26-0.55-0.43-0.32-0.16-0.77-0.16zm7.7-2.5v1.66h2.62v0.91h-2.62v3.73q0 0.4 0.1 0.66 0.11 0.26 0.28 0.42 0.18 0.15 0.41 0.22 0.23 0.06 0.49 0.06 0.19 0 0.4-0.02 0.2-0.03 0.39-0.06 0.2-0.03 0.36-0.06 0.17-0.04 0.28-0.06l0.17 0.83q-0.15 0.09-0.36 0.16-0.21 0.06-0.45 0.1-0.25 0.06-0.53 0.08-0.27 0.03-0.55 0.03-0.45 0-0.85-0.13-0.4-0.13-0.69-0.41-0.29-0.29-0.46-0.73-0.17-0.45-0.17-1.09v-3.73h-1.8v-0.91h1.8v-1.66zm6.2 2.68q0.37-0.54 0.91-0.84 0.54-0.3 1.21-0.31 0.54 0 0.98 0.16 0.44 0.15 0.76 0.48 0.31 0.33 0.47 0.84 0.17 0.5 0.17 1.2v4.32h-1.17v-4.34q0-0.84-0.41-1.25-0.4-0.42-1.15-0.41-0.56 0-1.02 0.28-0.46 0.27-0.75 0.73v4.99h-1.17v-9.75h1.17zm6.31 2.35q0-0.75 0.21-1.38 0.22-0.64 0.62-1.11 0.4-0.47 0.98-0.74 0.58-0.27 1.3-0.27 0.73 0 1.31 0.27 0.58 0.27 0.98 0.74 0.41 0.47 0.63 1.11 0.21 0.63 0.21 1.38v0.14q0 0.74-0.21 1.37-0.22 0.64-0.63 1.11-0.4 0.47-0.97 0.73-0.58 0.27-1.3 0.27-0.74 0-1.32-0.27-0.58-0.26-0.98-0.73-0.4-0.47-0.62-1.11-0.21-0.63-0.21-1.37zm1.17 0.14q0 0.5 0.12 0.97 0.12 0.46 0.36 0.8 0.25 0.35 0.62 0.56 0.37 0.2 0.86 0.2 0.48 0 0.84-0.2 0.37-0.21 0.61-0.56 0.25-0.34 0.37-0.8 0.12-0.47 0.12-0.97v-0.14q0-0.5-0.13-0.96-0.12-0.46-0.37-0.81-0.24-0.35-0.61-0.56-0.36-0.2-0.85-0.21-0.49 0.01-0.85 0.21-0.36 0.21-0.61 0.56-0.24 0.35-0.36 0.81-0.12 0.46-0.12 0.96zm6.74-0.14q0-0.76 0.19-1.41 0.2-0.64 0.55-1.11 0.37-0.46 0.87-0.72 0.51-0.26 1.14-0.26 0.62 0 1.07 0.21 0.47 0.2 0.8 0.6v-3.57h1.18v9.75h-1.08l-0.05-0.72q-0.35 0.42-0.82 0.64-0.48 0.21-1.11 0.21-0.62 0-1.13-0.27-0.5-0.26-0.86-0.73-0.36-0.47-0.55-1.11-0.2-0.64-0.2-1.37zm1.18 0.13q0 0.5 0.1 0.95 0.11 0.45 0.33 0.8 0.23 0.34 0.58 0.54 0.35 0.2 0.84 0.2 0.3 0 0.54-0.07 0.24-0.07 0.44-0.2 0.19-0.13 0.35-0.31 0.15-0.18 0.26-0.41v-3.18q-0.23-0.42-0.61-0.69-0.39-0.27-0.97-0.27-0.49 0-0.85 0.2-0.35 0.21-0.58 0.55-0.22 0.35-0.33 0.8-0.1 0.45-0.1 0.96zm12.51-1.6h-5.66v-1.02h5.66zm0 2.64h-5.66v-1.02h5.66zm4.25-6.74l-0.13 2.35h-0.83l0.01-2.25v-0.79h0.95zm2.27 0l-0.14 2.35h-0.82l0.01-2.25v-0.8h0.95zm9.42 7.85q-0.58 0.69-1.34 1.02-0.75 0.33-1.65 0.32-0.58-0.01-1.06-0.17-0.47-0.17-0.85-0.47-0.39-0.29-0.67-0.69-0.29-0.4-0.48-0.87-0.19-0.47-0.3-0.97-0.09-0.52-0.1-1.04v-1.07q0.01-0.52 0.09-1.02 0.09-0.52 0.27-0.99 0.18-0.47 0.44-0.87 0.27-0.4 0.64-0.7 0.37-0.29 0.84-0.47 0.47-0.17 1.06-0.17 0.64 0 1.19 0.21 0.54 0.19 0.95 0.57 0.41 0.37 0.65 0.89 0.25 0.52 0.31 1.17h-1.16q-0.07-0.4-0.22-0.74-0.14-0.34-0.39-0.58-0.23-0.24-0.56-0.37-0.33-0.14-0.77-0.14-0.42 0-0.74 0.14-0.33 0.14-0.57 0.38-0.24 0.24-0.4 0.57-0.15 0.32-0.26 0.67-0.1 0.36-0.14 0.72-0.05 0.37-0.05 0.72v1.08q0.01 0.35 0.06 0.72 0.06 0.37 0.17 0.73 0.12 0.35 0.29 0.67 0.18 0.32 0.43 0.56 0.25 0.24 0.58 0.39 0.33 0.14 0.75 0.14 0.24 0.01 0.5-0.02 0.27-0.02 0.52-0.1 0.25-0.07 0.46-0.2 0.22-0.13 0.36-0.34l0.02-2.08h-1.88v-0.99h2.99zm6.92-3.06h-3.86v3.28h4.5v0.99h-5.68v-9.24h5.62v1h-4.44v2.97h3.86zm8.95-3.96h-2.85v8.24h-1.15v-8.24h-2.85v-1.01h6.85zm3.68-0.82l-0.14 2.35h-0.82l0.01-2.24v-0.8h0.95zm2.26 0l-0.13 2.35h-0.82l0.01-2.25v-0.79h0.95zm3.47 3.29v-1.21l5.6 2.4v0.92l-5.6 2.41v-1.22l4.1-1.55 0.38-0.11-0.38-0.12zm17.07 1.56l-0.34 0.11 0.34 0.12 3.88 1.49v1.25l-5.38-2.41v-0.93l5.38-2.39v1.24zm7.88 5h-1.05l3.86-10.03h1.05zm8.01-0.8v-5.96h-1.89v-0.91h1.89v-0.48q0-0.66 0.19-1.15 0.2-0.5 0.54-0.84 0.36-0.34 0.85-0.51 0.5-0.17 1.11-0.17 0.42 0 0.81 0.07 0.4 0.07 0.82 0.18l-0.14 0.97q-0.26-0.09-0.61-0.15-0.34-0.07-0.74-0.07-0.82 0-1.24 0.42-0.41 0.41-0.41 1.25v0.48h2.65v0.91h-2.65v5.96zm5.72-3.5q0-0.74 0.22-1.37 0.22-0.64 0.62-1.11 0.4-0.47 0.98-0.74 0.58-0.27 1.3-0.27 0.73 0 1.31 0.27 0.58 0.27 0.98 0.74 0.41 0.47 0.62 1.11 0.22 0.63 0.22 1.37v0.14q0 0.75-0.22 1.38-0.21 0.64-0.62 1.11-0.4 0.47-0.98 0.73-0.57 0.27-1.3 0.27-0.73 0-1.31-0.27-0.58-0.26-0.98-0.73-0.4-0.47-0.62-1.11-0.22-0.63-0.22-1.38zm1.18 0.14q0 0.51 0.12 0.98 0.12 0.45 0.36 0.8 0.25 0.35 0.62 0.55 0.36 0.21 0.85 0.21 0.49 0 0.85-0.21 0.37-0.2 0.61-0.55 0.24-0.35 0.37-0.8 0.12-0.47 0.12-0.98v-0.14q0-0.5-0.13-0.95-0.12-0.47-0.37-0.82-0.24-0.34-0.61-0.55-0.36-0.21-0.85-0.21-0.49 0-0.85 0.21-0.36 0.21-0.61 0.55-0.24 0.35-0.36 0.82-0.12 0.45-0.12 0.95zm11.46-3.63q0.17 0 0.35 0.01 0.17 0.01 0.33 0.03 0.17 0.02 0.3 0.05 0.14 0.03 0.23 0.07l-0.16 1.15q-0.34-0.07-0.65-0.11-0.31-0.03-0.65-0.03-0.82 0-1.33 0.37-0.51 0.37-0.75 1.05v4.4h-1.18v-6.87h1.11l0.06 1.1q0.42-0.57 1-0.89 0.59-0.33 1.34-0.33zm3.85 0.12l0.03 0.65q0.21-0.36 0.55-0.56 0.34-0.21 0.82-0.21 0.95 0 1.27 0.73 0.2-0.33 0.53-0.52 0.33-0.21 0.81-0.21 0.76 0 1.16 0.46 0.41 0.46 0.41 1.4v5.13h-1.12v-5.14q0-0.86-0.79-0.86-0.21 0-0.36 0.06-0.16 0.06-0.26 0.16-0.1 0.1-0.16 0.23-0.05 0.13-0.07 0.26v5.29h-1.12v-5.15q0-0.41-0.18-0.63-0.19-0.22-0.59-0.22-0.37 0-0.57 0.15-0.2 0.15-0.3 0.39v5.46h-1.11v-6.87zm7.29 1.1v-1.21l5.6 2.4v0.93l-5.6 2.4v-1.22l4.11-1.55 0.38-0.1-0.38-0.12zm-303.05 21.56l-0.34 0.1 0.34 0.12 3.88 1.5v1.24l-5.38-2.4v-0.93l5.38-2.4v1.24zm10.9 2.39q0-0.21-0.08-0.37-0.08-0.18-0.28-0.32-0.2-0.13-0.52-0.25-0.33-0.12-0.81-0.22-0.59-0.12-1.08-0.29-0.48-0.17-0.83-0.4-0.34-0.24-0.53-0.56-0.19-0.33-0.19-0.75 0-0.42 0.19-0.78 0.2-0.37 0.56-0.64 0.35-0.28 0.84-0.43 0.5-0.16 1.09-0.16 0.63 0 1.14 0.16 0.51 0.17 0.86 0.46 0.36 0.29 0.55 0.68 0.19 0.39 0.2 0.84h-1.18q0-0.22-0.11-0.43-0.12-0.22-0.32-0.38-0.2-0.17-0.5-0.27-0.28-0.1-0.64-0.1-0.38 0-0.66 0.08-0.28 0.09-0.47 0.23-0.19 0.14-0.28 0.32-0.1 0.18-0.1 0.38 0 0.2 0.08 0.36 0.07 0.16 0.26 0.29 0.19 0.13 0.5 0.23 0.32 0.1 0.8 0.19 0.63 0.14 1.14 0.31 0.5 0.18 0.84 0.42 0.34 0.25 0.52 0.57 0.18 0.32 0.18 0.75 0 0.45-0.2 0.83-0.21 0.37-0.58 0.64-0.36 0.27-0.88 0.41-0.51 0.15-1.12 0.15-0.7 0-1.25-0.19-0.54-0.19-0.92-0.49-0.38-0.31-0.58-0.72-0.2-0.4-0.2-0.84h1.18q0.02 0.36 0.19 0.61 0.17 0.25 0.42 0.4 0.25 0.15 0.55 0.21 0.31 0.07 0.61 0.07 0.74 0 1.17-0.28 0.43-0.27 0.44-0.72zm6.17 1q0.32 0 0.62-0.11 0.3-0.1 0.54-0.27 0.23-0.19 0.37-0.43 0.15-0.25 0.15-0.53h1.11q0 0.45-0.24 0.87-0.23 0.42-0.61 0.73-0.39 0.31-0.89 0.5-0.5 0.19-1.05 0.19-0.78 0-1.36-0.28-0.59-0.28-0.98-0.75-0.39-0.48-0.59-1.09-0.19-0.62-0.19-1.31v-0.27q0-0.67 0.19-1.3 0.2-0.62 0.59-1.09 0.39-0.48 0.98-0.75 0.58-0.28 1.36-0.28 0.61 0 1.12 0.19 0.51 0.19 0.88 0.53 0.37 0.33 0.58 0.79 0.21 0.45 0.21 0.97h-1.11q0-0.31-0.14-0.58-0.12-0.28-0.35-0.49-0.22-0.21-0.53-0.33-0.3-0.12-0.66-0.12-0.55 0-0.92 0.22-0.37 0.22-0.6 0.57-0.22 0.35-0.33 0.79-0.09 0.44-0.09 0.88v0.27q0 0.45 0.09 0.9 0.1 0.43 0.33 0.79 0.23 0.35 0.59 0.57 0.38 0.22 0.93 0.22zm9.38-6.17q0.17 0 0.35 0.01 0.17 0.01 0.33 0.03 0.17 0.02 0.3 0.05 0.14 0.03 0.23 0.07l-0.16 1.15q-0.34-0.08-0.65-0.11-0.31-0.03-0.65-0.04-0.82 0.01-1.33 0.38-0.51 0.37-0.75 1.05v4.4h-1.18v-6.87h1.11l0.06 1.1q0.42-0.57 1-0.89 0.59-0.33 1.34-0.33zm3.49 0.12h3.51v5.86h2.24v1.01h-5.75v-1.01h2.34v-4.83h-2.34zm2.19-1.81q0-0.29 0.17-0.49 0.18-0.2 0.53-0.2 0.35 0 0.53 0.2 0.18 0.2 0.18 0.49 0 0.29-0.18 0.48-0.18 0.19-0.53 0.19-0.35 0-0.53-0.19-0.17-0.19-0.17-0.48zm11.23 5.32q0 0.73-0.18 1.37-0.17 0.64-0.52 1.11-0.34 0.47-0.85 0.73-0.5 0.27-1.15 0.27-0.62 0-1.11-0.2-0.47-0.21-0.81-0.59v3.3h-1.18v-9.5h1.07l0.06 0.74q0.34-0.42 0.83-0.64 0.48-0.23 1.13-0.23 0.66 0 1.16 0.26 0.51 0.26 0.85 0.72 0.35 0.47 0.52 1.11 0.18 0.64 0.18 1.41zm-1.17-0.13q0-0.5-0.12-0.95-0.1-0.46-0.34-0.8-0.23-0.35-0.58-0.55-0.36-0.21-0.85-0.21-0.57 0-0.96 0.27-0.38 0.26-0.6 0.67v3.31q0.22 0.41 0.6 0.67 0.38 0.25 0.97 0.25 0.49 0 0.84-0.2 0.36-0.21 0.59-0.56 0.23-0.35 0.33-0.81 0.12-0.46 0.12-0.96zm5.96-5.04v1.67h2.62v0.9h-2.62v3.74q0 0.4 0.11 0.66 0.1 0.26 0.28 0.41 0.17 0.16 0.4 0.22 0.24 0.06 0.5 0.06 0.19 0 0.39-0.02 0.2-0.02 0.39-0.05 0.2-0.03 0.37-0.07 0.17-0.03 0.28-0.06l0.16 0.83q-0.15 0.09-0.36 0.16-0.2 0.07-0.45 0.11-0.25 0.05-0.53 0.08-0.27 0.02-0.54 0.02-0.46 0-0.86-0.13-0.4-0.13-0.69-0.41-0.29-0.28-0.46-0.73-0.17-0.45-0.17-1.08v-3.74h-1.8v-0.9h1.8v-1.67zm-29.44 26.71q0-0.21-0.08-0.37-0.09-0.17-0.28-0.31-0.2-0.14-0.52-0.26-0.33-0.12-0.81-0.21-0.59-0.12-1.08-0.3-0.48-0.17-0.83-0.4-0.34-0.24-0.53-0.56-0.2-0.32-0.19-0.75 0-0.42 0.19-0.78 0.2-0.37 0.55-0.64 0.36-0.27 0.85-0.43 0.49-0.16 1.08-0.16 0.64 0 1.15 0.16 0.5 0.17 0.86 0.46 0.35 0.29 0.55 0.69 0.19 0.38 0.19 0.83h-1.17q0-0.22-0.12-0.43-0.11-0.21-0.31-0.38-0.21-0.16-0.5-0.27-0.28-0.1-0.65-0.1-0.37 0-0.66 0.09-0.28 0.08-0.47 0.22-0.18 0.14-0.28 0.32-0.09 0.19-0.09 0.38 0 0.21 0.08 0.36 0.07 0.16 0.26 0.29 0.19 0.13 0.5 0.23 0.31 0.1 0.8 0.2 0.63 0.13 1.13 0.31 0.5 0.17 0.85 0.42 0.34 0.24 0.52 0.56 0.18 0.32 0.18 0.75 0 0.46-0.21 0.83-0.2 0.38-0.57 0.64-0.37 0.27-0.88 0.41-0.51 0.15-1.12 0.15-0.7 0-1.25-0.18-0.54-0.19-0.93-0.5-0.37-0.31-0.57-0.72-0.2-0.4-0.2-0.84h1.17q0.03 0.36 0.2 0.61 0.17 0.25 0.41 0.4 0.26 0.15 0.56 0.21 0.31 0.07 0.61 0.07 0.74 0 1.17-0.27 0.43-0.28 0.44-0.73zm7.74-5.17q0.17 0 0.35 0.01 0.17 0.01 0.33 0.03 0.17 0.02 0.3 0.05 0.14 0.04 0.23 0.07l-0.16 1.15q-0.34-0.07-0.65-0.11-0.31-0.03-0.65-0.03-0.82 0-1.33 0.37-0.51 0.38-0.75 1.05v4.4h-1.18v-6.86h1.11l0.06 1.09q0.42-0.57 1-0.89 0.59-0.33 1.34-0.33zm6.24 6.17q0.31 0 0.61-0.1 0.31-0.1 0.54-0.28 0.24-0.19 0.38-0.43 0.14-0.24 0.15-0.53h1.11q-0.01 0.46-0.24 0.87-0.23 0.42-0.62 0.73-0.39 0.32-0.89 0.51-0.5 0.18-1.04 0.18-0.78 0-1.37-0.28-0.58-0.28-0.98-0.75-0.38-0.47-0.58-1.09-0.2-0.62-0.2-1.31v-0.26q0-0.68 0.2-1.31 0.2-0.62 0.58-1.09 0.4-0.47 0.98-0.75 0.59-0.28 1.37-0.28 0.6 0 1.11 0.2 0.52 0.19 0.89 0.52 0.37 0.33 0.58 0.79 0.21 0.46 0.21 0.98h-1.11q-0.01-0.31-0.14-0.59-0.13-0.28-0.35-0.49-0.22-0.2-0.53-0.33-0.31-0.12-0.66-0.12-0.55 0-0.92 0.23-0.37 0.21-0.6 0.57-0.23 0.35-0.33 0.78-0.1 0.44-0.1 0.89v0.26q0 0.45 0.1 0.9 0.1 0.44 0.32 0.79 0.23 0.35 0.6 0.57 0.37 0.22 0.93 0.22zm10.54-4.13h-5.67v-1.02h5.67zm0 2.63h-5.67v-1.01h5.67zm4.25-6.74l-0.14 2.35h-0.82v-2.25-0.79h0.96zm2.26 0l-0.13 2.34h-0.82l0.01-2.24v-0.8h0.95zm4.61 3.22q0.37-0.54 0.91-0.84 0.54-0.31 1.21-0.31 0.54 0 0.98 0.16 0.45 0.15 0.76 0.48 0.31 0.33 0.47 0.84 0.17 0.5 0.17 1.19v4.32h-1.17v-4.33q0-0.85-0.41-1.26-0.4-0.41-1.15-0.41-0.56 0-1.02 0.28-0.46 0.28-0.75 0.73v4.99h-1.17v-9.75h1.17zm9.42-2.68v1.66h2.61v0.91h-2.61v3.73q0 0.4 0.1 0.66 0.1 0.26 0.28 0.42 0.17 0.15 0.4 0.21 0.24 0.07 0.5 0.07 0.19 0 0.39-0.02 0.21-0.03 0.4-0.06 0.19-0.03 0.36-0.06 0.17-0.04 0.28-0.07l0.16 0.84q-0.14 0.09-0.35 0.15-0.21 0.07-0.46 0.11-0.25 0.05-0.53 0.08-0.27 0.02-0.54 0.02-0.46 0.01-0.86-0.12-0.39-0.14-0.69-0.42-0.29-0.28-0.46-0.73-0.16-0.45-0.16-1.08v-3.73h-1.81v-0.91h1.81v-1.66zm7.8 0v1.66h2.62v0.91h-2.62v3.73q0 0.4 0.11 0.66 0.1 0.26 0.27 0.42 0.18 0.15 0.41 0.21 0.24 0.07 0.5 0.07 0.19 0 0.39-0.02 0.2-0.03 0.39-0.06 0.2-0.03 0.36-0.06 0.18-0.04 0.28-0.07l0.17 0.84q-0.15 0.09-0.36 0.15-0.21 0.07-0.45 0.11-0.25 0.05-0.53 0.08-0.27 0.02-0.55 0.02-0.45 0.01-0.85-0.12-0.4-0.14-0.69-0.42-0.29-0.28-0.46-0.73-0.17-0.45-0.17-1.08v-3.73h-1.8v-0.91h1.8v-1.66zm10.83 5.17q0 0.74-0.18 1.38-0.18 0.63-0.52 1.1-0.34 0.47-0.85 0.74-0.5 0.26-1.15 0.26-0.63 0-1.11-0.2-0.48-0.2-0.82-0.58v3.3h-1.18v-9.51h1.08l0.05 0.75q0.35-0.43 0.83-0.65 0.49-0.23 1.13-0.23 0.66 0 1.17 0.26 0.51 0.26 0.85 0.73 0.34 0.46 0.52 1.11 0.18 0.64 0.18 1.41zm-1.18-0.14q0-0.5-0.11-0.95-0.11-0.46-0.34-0.8-0.23-0.35-0.59-0.55-0.35-0.2-0.85-0.2-0.56 0-0.95 0.26-0.38 0.26-0.61 0.68v3.3q0.23 0.41 0.61 0.67 0.38 0.25 0.96 0.25 0.49 0 0.85-0.2 0.35-0.21 0.58-0.56 0.23-0.35 0.34-0.8 0.11-0.46 0.11-0.96zm7.75 1.67q0-0.21-0.08-0.38-0.08-0.17-0.28-0.31-0.2-0.14-0.52-0.25-0.32-0.12-0.81-0.22-0.59-0.12-1.07-0.29-0.49-0.17-0.84-0.41-0.34-0.24-0.53-0.56-0.19-0.32-0.19-0.75 0-0.41 0.2-0.78 0.19-0.36 0.55-0.64 0.35-0.27 0.84-0.43 0.5-0.16 1.09-0.16 0.63 0 1.14 0.17 0.51 0.16 0.86 0.45 0.36 0.3 0.55 0.69 0.2 0.39 0.2 0.84h-1.18q0-0.22-0.11-0.43-0.12-0.22-0.32-0.38-0.2-0.17-0.49-0.27-0.29-0.1-0.65-0.1-0.38 0-0.66 0.08-0.28 0.08-0.47 0.22-0.19 0.14-0.28 0.33-0.1 0.18-0.1 0.38 0 0.2 0.08 0.36 0.08 0.16 0.26 0.28 0.19 0.13 0.5 0.23 0.32 0.1 0.8 0.2 0.64 0.13 1.14 0.31 0.5 0.17 0.84 0.42 0.34 0.24 0.52 0.56 0.19 0.33 0.19 0.75 0 0.46-0.21 0.83-0.21 0.38-0.57 0.65-0.37 0.26-0.89 0.41-0.51 0.14-1.12 0.14-0.7 0.01-1.24-0.18-0.55-0.19-0.93-0.49-0.38-0.32-0.58-0.72-0.2-0.41-0.19-0.85h1.17q0.02 0.37 0.19 0.61 0.17 0.25 0.42 0.4 0.25 0.16 0.56 0.22 0.3 0.06 0.6 0.06 0.74 0 1.17-0.27 0.44-0.27 0.44-0.72zm5.61 1.06q0-0.19 0.05-0.36 0.07-0.16 0.18-0.29 0.12-0.12 0.29-0.19 0.17-0.07 0.4-0.07 0.23 0 0.4 0.07 0.17 0.07 0.29 0.19 0.12 0.13 0.18 0.29 0.06 0.17 0.06 0.36 0 0.18-0.06 0.34-0.06 0.16-0.18 0.28-0.12 0.12-0.29 0.19-0.17 0.07-0.4 0.07-0.23 0-0.4-0.07-0.17-0.07-0.29-0.19-0.11-0.12-0.18-0.28-0.05-0.16-0.05-0.34zm0-5.56q0-0.19 0.05-0.36 0.07-0.17 0.18-0.29 0.12-0.12 0.29-0.19 0.17-0.07 0.4-0.07 0.23 0 0.4 0.07 0.17 0.07 0.29 0.19 0.12 0.12 0.18 0.29 0.06 0.17 0.06 0.36 0 0.18-0.06 0.34-0.06 0.16-0.18 0.28-0.12 0.12-0.29 0.19-0.17 0.07-0.4 0.07-0.23 0-0.4-0.07-0.17-0.07-0.29-0.19-0.11-0.12-0.18-0.28-0.05-0.16-0.05-0.34zm6.99 7.11h-1.05l3.86-10.03h1.05zm7.8 0h-1.05l3.86-10.04h1.05zm6.44-10.54h3.51v8.73h2.24v1.02h-5.75v-1.02h2.34v-7.71h-2.34zm7.29 6.25q0-0.74 0.22-1.38 0.21-0.64 0.61-1.11 0.41-0.47 0.99-0.73 0.58-0.28 1.3-0.28 0.73 0 1.31 0.28 0.58 0.26 0.98 0.73 0.41 0.47 0.62 1.11 0.22 0.64 0.22 1.38v0.14q0 0.74-0.22 1.38-0.21 0.63-0.62 1.1-0.4 0.47-0.98 0.74-0.57 0.27-1.3 0.27-0.73 0-1.31-0.27-0.58-0.27-0.99-0.74-0.4-0.47-0.61-1.1-0.22-0.64-0.22-1.38zm1.18 0.14q0 0.51 0.12 0.97 0.12 0.46 0.36 0.81 0.25 0.35 0.62 0.55 0.36 0.2 0.85 0.2 0.48 0 0.85-0.2 0.36-0.2 0.61-0.55 0.24-0.35 0.36-0.81 0.12-0.46 0.12-0.97v-0.14q0-0.5-0.12-0.96-0.12-0.46-0.37-0.81-0.24-0.35-0.61-0.55-0.36-0.21-0.85-0.21-0.49 0-0.85 0.21-0.36 0.2-0.61 0.55-0.24 0.35-0.36 0.81-0.12 0.46-0.12 0.96zm11.46-3.64q0.17 0 0.34 0.02 0.18 0 0.34 0.03 0.16 0.02 0.3 0.05 0.14 0.03 0.23 0.07l-0.16 1.15q-0.35-0.08-0.66-0.11-0.3-0.04-0.64-0.04-0.82 0-1.34 0.38-0.5 0.37-0.74 1.04v4.41h-1.19v-6.87h1.12l0.06 1.09q0.42-0.56 1-0.89 0.59-0.33 1.34-0.33zm6.34 7.13q-0.72 0-1.33-0.25-0.6-0.25-1.04-0.69-0.43-0.45-0.67-1.06-0.24-0.61-0.24-1.32v-0.27q0-0.83 0.27-1.49 0.26-0.65 0.7-1.11 0.45-0.45 1-0.69 0.57-0.25 1.16-0.25 0.74 0.01 1.29 0.26 0.56 0.26 0.93 0.72 0.37 0.45 0.55 1.06 0.18 0.62 0.18 1.33v0.53h-4.91q0.02 0.47 0.18 0.88 0.17 0.42 0.45 0.73 0.28 0.3 0.68 0.48 0.39 0.18 0.87 0.18 0.62 0 1.11-0.26 0.49-0.25 0.82-0.67l0.71 0.56q-0.17 0.26-0.43 0.5-0.25 0.24-0.59 0.42-0.34 0.18-0.76 0.29-0.43 0.12-0.93 0.12zm-0.15-6.16q-0.36 0-0.67 0.13-0.32 0.13-0.57 0.38-0.26 0.25-0.44 0.62-0.17 0.36-0.24 0.84h3.7v-0.09q-0.02-0.34-0.14-0.68-0.1-0.34-0.32-0.6-0.22-0.27-0.55-0.44-0.32-0.16-0.77-0.16zm5.47-0.84l0.03 0.65q0.21-0.36 0.54-0.57 0.35-0.2 0.83-0.21 0.94 0 1.26 0.74 0.2-0.33 0.53-0.53 0.34-0.2 0.82-0.21 0.75 0 1.16 0.47 0.4 0.46 0.4 1.4v5.13h-1.11v-5.14q0-0.86-0.8-0.86-0.21 0-0.36 0.06-0.15 0.06-0.25 0.16-0.1 0.09-0.16 0.23-0.06 0.12-0.08 0.26v5.29h-1.11v-5.15q0-0.41-0.19-0.63-0.18-0.23-0.58-0.22-0.37 0-0.57 0.15-0.21 0.14-0.3 0.38v5.47h-1.12v-6.87zm7.45 0h3.51v5.85h2.24v1.02h-5.75v-1.02h2.34v-4.83h-2.34zm2.19-1.8q0-0.29 0.17-0.49 0.18-0.2 0.53-0.2 0.35 0 0.53 0.2 0.18 0.2 0.18 0.49 0 0.29-0.18 0.48-0.18 0.19-0.53 0.19-0.35 0-0.53-0.19-0.17-0.19-0.17-0.48zm11.23 5.31q0 0.74-0.18 1.38-0.17 0.64-0.52 1.11-0.34 0.47-0.85 0.73-0.5 0.27-1.15 0.27-0.62 0-1.11-0.2-0.47-0.21-0.82-0.59v3.3h-1.17v-9.51h1.07l0.06 0.75q0.34-0.42 0.83-0.65 0.48-0.22 1.13-0.22 0.65 0 1.16 0.26 0.51 0.26 0.85 0.72 0.35 0.46 0.52 1.11 0.18 0.64 0.18 1.41zm-1.17-0.13q0-0.5-0.12-0.95-0.1-0.46-0.34-0.8-0.23-0.35-0.58-0.56-0.36-0.2-0.85-0.2-0.57 0-0.96 0.27-0.38 0.26-0.61 0.67v3.31q0.23 0.4 0.61 0.66 0.38 0.26 0.97 0.26 0.49 0 0.84-0.21 0.36-0.21 0.59-0.55 0.23-0.35 0.33-0.81 0.12-0.46 0.12-0.96zm7.75 1.67q0-0.21-0.08-0.37-0.09-0.18-0.28-0.32-0.2-0.13-0.52-0.25-0.33-0.12-0.81-0.22-0.59-0.12-1.08-0.29-0.48-0.17-0.83-0.4-0.34-0.24-0.53-0.56-0.19-0.33-0.19-0.75 0-0.42 0.19-0.78 0.2-0.37 0.55-0.64 0.36-0.28 0.85-0.43 0.49-0.16 1.08-0.16 0.64 0 1.15 0.16 0.5 0.17 0.86 0.46 0.36 0.29 0.55 0.68 0.19 0.39 0.19 0.84h-1.17q0-0.22-0.12-0.43-0.11-0.22-0.31-0.38-0.21-0.17-0.5-0.27-0.28-0.1-0.65-0.1-0.37 0-0.66 0.08-0.28 0.09-0.47 0.23-0.18 0.14-0.27 0.32-0.1 0.18-0.1 0.38 0 0.2 0.08 0.36 0.07 0.16 0.26 0.29 0.19 0.13 0.5 0.23 0.32 0.1 0.8 0.19 0.63 0.14 1.13 0.31 0.5 0.18 0.85 0.42 0.34 0.25 0.52 0.57 0.18 0.32 0.18 0.75 0 0.45-0.21 0.83-0.2 0.37-0.57 0.64-0.37 0.27-0.88 0.41-0.52 0.15-1.12 0.15-0.7 0-1.25-0.19-0.54-0.19-0.92-0.49-0.38-0.31-0.58-0.72-0.2-0.4-0.2-0.84h1.18q0.02 0.36 0.19 0.61 0.17 0.25 0.41 0.4 0.26 0.15 0.56 0.21 0.31 0.07 0.61 0.07 0.74 0 1.17-0.28 0.43-0.27 0.44-0.72zm7.7 0.88q-0.34 0.5-0.86 0.79-0.51 0.28-1.19 0.28-0.54 0-0.97-0.17-0.44-0.17-0.75-0.52-0.31-0.36-0.48-0.9-0.17-0.56-0.17-1.33v-4.08h1.17v4.1q0 0.56 0.09 0.92 0.09 0.37 0.27 0.59 0.18 0.22 0.43 0.31 0.26 0.09 0.6 0.09 0.72 0 1.15-0.29 0.45-0.3 0.66-0.79v-4.93h1.18v6.87h-1.06zm3.89-5.92l0.03 0.65q0.21-0.36 0.55-0.57 0.34-0.2 0.82-0.21 0.95 0 1.27 0.74 0.2-0.33 0.53-0.53 0.33-0.2 0.81-0.21 0.76 0 1.16 0.47 0.41 0.46 0.41 1.4v5.13h-1.12v-5.14q0-0.87-0.79-0.86-0.21 0-0.36 0.06-0.16 0.05-0.26 0.15-0.1 0.1-0.16 0.23-0.05 0.13-0.07 0.27v5.29h-1.12v-5.15q0-0.41-0.18-0.64-0.19-0.22-0.59-0.21-0.37 0-0.57 0.14-0.2 0.15-0.3 0.39v5.47h-1.11v-6.87zm9.31 6.11q0-0.19 0.05-0.36 0.07-0.16 0.18-0.29 0.12-0.12 0.29-0.19 0.17-0.07 0.4-0.07 0.23 0 0.4 0.07 0.18 0.07 0.29 0.19 0.12 0.13 0.18 0.29 0.06 0.17 0.06 0.36 0 0.18-0.06 0.34-0.06 0.16-0.18 0.28-0.11 0.12-0.29 0.19-0.17 0.07-0.4 0.07-0.23 0-0.4-0.07-0.17-0.07-0.29-0.19-0.11-0.12-0.18-0.28-0.05-0.16-0.05-0.34zm8.69-0.07q0.31 0 0.61-0.1 0.31-0.1 0.54-0.28 0.24-0.18 0.38-0.42 0.14-0.25 0.15-0.54h1.11q-0.01 0.46-0.24 0.88-0.23 0.41-0.62 0.73-0.38 0.31-0.89 0.5-0.5 0.19-1.04 0.18-0.78 0-1.37-0.27-0.58-0.28-0.97-0.75-0.39-0.48-0.59-1.1-0.2-0.62-0.2-1.3v-0.27q0-0.68 0.2-1.3 0.2-0.62 0.59-1.09 0.39-0.48 0.97-0.76 0.59-0.28 1.37-0.28 0.61 0 1.11 0.2 0.52 0.19 0.89 0.53 0.37 0.33 0.58 0.78 0.21 0.46 0.21 0.98h-1.11q-0.01-0.31-0.14-0.58-0.13-0.28-0.35-0.49-0.22-0.21-0.53-0.33-0.31-0.12-0.66-0.12-0.55 0-0.92 0.22-0.37 0.22-0.6 0.57-0.23 0.35-0.33 0.79-0.1 0.44-0.1 0.88v0.27q0 0.45 0.1 0.89 0.1 0.44 0.32 0.8 0.23 0.34 0.6 0.57 0.38 0.21 0.93 0.21zm4.55-2.67q0-0.74 0.21-1.38 0.22-0.64 0.62-1.11 0.41-0.47 0.98-0.73 0.58-0.28 1.31-0.28 0.72 0 1.3 0.28 0.59 0.26 0.99 0.73 0.4 0.47 0.62 1.11 0.21 0.64 0.21 1.38v0.14q0 0.74-0.21 1.38-0.22 0.63-0.62 1.1-0.4 0.47-0.98 0.74-0.58 0.26-1.3 0.26-0.73 0-1.32-0.26-0.57-0.27-0.98-0.74-0.4-0.47-0.62-1.1-0.21-0.64-0.21-1.38zm1.17 0.14q0 0.51 0.12 0.97 0.12 0.46 0.37 0.81 0.24 0.35 0.61 0.55 0.37 0.2 0.86 0.2 0.48 0 0.84-0.2 0.37-0.2 0.61-0.55 0.25-0.35 0.37-0.81 0.12-0.46 0.12-0.97v-0.14q0-0.5-0.13-0.96-0.12-0.46-0.36-0.81-0.25-0.35-0.61-0.55-0.37-0.21-0.85-0.21-0.49 0-0.86 0.21-0.36 0.2-0.6 0.55-0.25 0.35-0.37 0.81-0.12 0.46-0.12 0.96zm7.51-3.51l0.03 0.65q0.21-0.36 0.54-0.57 0.35-0.2 0.83-0.21 0.94 0 1.26 0.74 0.2-0.33 0.54-0.53 0.33-0.2 0.81-0.21 0.75 0 1.16 0.47 0.4 0.46 0.41 1.4v5.13h-1.12v-5.14q0-0.87-0.8-0.86-0.2 0-0.36 0.06-0.15 0.05-0.25 0.15-0.1 0.1-0.16 0.23-0.06 0.13-0.08 0.27v5.29h-1.11v-5.15q0-0.41-0.19-0.64-0.18-0.22-0.58-0.21-0.37 0-0.57 0.14-0.21 0.15-0.3 0.39v5.47h-1.12v-6.87zm8.82 7.66h-1.05l3.86-10.03h1.04zm10.77-0.8q-0.06-0.13-0.11-0.33-0.04-0.2-0.06-0.42-0.18 0.18-0.4 0.34-0.21 0.16-0.48 0.28-0.26 0.12-0.56 0.19-0.3 0.07-0.63 0.07-0.55 0-0.99-0.16-0.44-0.16-0.75-0.42-0.31-0.28-0.48-0.65-0.16-0.37-0.16-0.8 0-0.57 0.22-0.99 0.23-0.43 0.64-0.71 0.41-0.28 0.99-0.42 0.58-0.14 1.3-0.14h1.28v-0.54q0-0.31-0.11-0.56-0.12-0.25-0.32-0.42-0.21-0.18-0.52-0.27-0.3-0.1-0.67-0.1-0.35 0-0.63 0.09-0.27 0.09-0.46 0.24-0.19 0.14-0.3 0.35-0.1 0.19-0.1 0.41h-1.18q0-0.38 0.19-0.74 0.19-0.36 0.54-0.65 0.35-0.29 0.85-0.46 0.51-0.18 1.15-0.18 0.59 0 1.09 0.14 0.5 0.14 0.86 0.44 0.37 0.28 0.58 0.71 0.21 0.43 0.21 1.01v3.19q0 0.35 0.06 0.73 0.07 0.39 0.18 0.67v0.1zm-2.08-0.89q0.35 0 0.65-0.09 0.29-0.09 0.53-0.24 0.25-0.14 0.43-0.33 0.18-0.19 0.28-0.39v-1.39h-1.09q-1.03 0-1.6 0.3-0.57 0.31-0.57 0.96 0 0.26 0.08 0.47 0.09 0.22 0.26 0.38 0.17 0.15 0.43 0.24 0.26 0.09 0.6 0.09zm11.17-2.47q0 0.74-0.18 1.38-0.18 0.64-0.52 1.11-0.34 0.47-0.85 0.73-0.5 0.27-1.15 0.27-0.63 0-1.11-0.2-0.48-0.21-0.82-0.59v3.3h-1.17v-9.51h1.07l0.06 0.75q0.34-0.42 0.82-0.64 0.49-0.23 1.13-0.23 0.66 0 1.17 0.26 0.51 0.26 0.85 0.72 0.34 0.47 0.52 1.11 0.18 0.64 0.18 1.41zm-1.17-0.13q0-0.5-0.12-0.95-0.11-0.46-0.34-0.8-0.23-0.35-0.59-0.56-0.35-0.2-0.85-0.2-0.56 0-0.95 0.27-0.38 0.26-0.61 0.67v3.31q0.23 0.4 0.61 0.66 0.38 0.26 0.97 0.26 0.48 0 0.84-0.21 0.36-0.2 0.58-0.55 0.23-0.35 0.34-0.81 0.12-0.46 0.12-0.96zm3.37-3.38h3.51v5.86h2.24v1.01h-5.75v-1.01h2.33v-4.83h-2.33zm2.18-1.81q0-0.29 0.17-0.49 0.18-0.2 0.53-0.2 0.35 0 0.53 0.2 0.18 0.2 0.18 0.49 0 0.29-0.18 0.48-0.18 0.19-0.53 0.19-0.35 0-0.53-0.19-0.17-0.19-0.17-0.48zm7.48 7.91q0-0.19 0.06-0.35 0.06-0.17 0.18-0.29 0.11-0.12 0.28-0.2 0.18-0.06 0.4-0.06 0.23 0 0.4 0.06 0.18 0.08 0.3 0.2 0.12 0.12 0.17 0.29 0.07 0.16 0.07 0.35 0 0.19-0.07 0.35-0.05 0.16-0.17 0.28-0.12 0.12-0.3 0.19-0.17 0.07-0.4 0.07-0.22 0-0.4-0.07-0.17-0.07-0.28-0.19-0.12-0.12-0.18-0.28-0.06-0.16-0.06-0.35zm6.56-6.1h3.47v6.91q0 0.66-0.19 1.17-0.18 0.5-0.52 0.85-0.35 0.35-0.85 0.52-0.49 0.19-1.13 0.19-0.36 0-0.68-0.03-0.31-0.02-0.66-0.08l0.08-0.96q0.11 0.01 0.28 0.03 0.16 0.02 0.33 0.02 0.17 0.02 0.32 0.02 0.16 0 0.25 0 0.33 0 0.62-0.09 0.29-0.08 0.51-0.28 0.21-0.21 0.33-0.54 0.13-0.33 0.13-0.82v-5.89h-2.29zm2.13-1.81q0-0.29 0.17-0.48 0.17-0.21 0.53-0.21 0.35 0 0.53 0.21 0.18 0.19 0.18 0.48 0 0.29-0.18 0.48-0.18 0.19-0.53 0.19-0.36 0-0.53-0.19-0.17-0.19-0.17-0.48zm9.45 6.85q0-0.2-0.08-0.37-0.09-0.17-0.28-0.31-0.2-0.14-0.52-0.25-0.33-0.13-0.81-0.22-0.59-0.12-1.08-0.29-0.48-0.17-0.83-0.41-0.34-0.24-0.53-0.56-0.19-0.32-0.19-0.75 0-0.41 0.19-0.78 0.2-0.36 0.55-0.64 0.36-0.27 0.85-0.43 0.49-0.16 1.08-0.16 0.64 0 1.15 0.17 0.5 0.16 0.86 0.45 0.36 0.3 0.55 0.69 0.19 0.39 0.19 0.84h-1.17q0-0.23-0.12-0.43-0.11-0.22-0.31-0.39-0.21-0.16-0.5-0.26-0.28-0.1-0.65-0.1-0.37 0-0.66 0.08-0.28 0.08-0.47 0.22-0.18 0.14-0.27 0.32-0.1 0.19-0.1 0.39 0 0.2 0.08 0.36 0.07 0.16 0.26 0.28 0.19 0.13 0.5 0.23 0.32 0.1 0.8 0.2 0.63 0.13 1.13 0.31 0.5 0.17 0.85 0.42 0.34 0.24 0.52 0.56 0.18 0.33 0.18 0.75 0 0.46-0.21 0.83-0.2 0.38-0.57 0.64-0.37 0.27-0.88 0.42-0.51 0.14-1.12 0.14-0.7 0-1.25-0.18-0.54-0.19-0.92-0.5-0.38-0.31-0.58-0.71-0.2-0.41-0.2-0.85h1.18q0.02 0.36 0.19 0.61 0.17 0.25 0.41 0.4 0.26 0.15 0.56 0.22 0.31 0.06 0.61 0.06 0.74 0 1.17-0.27 0.43-0.27 0.44-0.73zm5.34-7.23l-0.13 2.35h-0.83l0.01-2.25v-0.79h0.95zm2.27 0l-0.13 2.35h-0.82v-2.25-0.8h0.96zm-270.05 25.57q0-0.77 0.19-1.41 0.19-0.64 0.55-1.11 0.36-0.46 0.87-0.72 0.51-0.26 1.14-0.26 0.61 0 1.07 0.21 0.46 0.2 0.8 0.59v-3.56h1.17v9.75h-1.08l-0.05-0.72q-0.34 0.42-0.82 0.63-0.47 0.22-1.11 0.22-0.62 0-1.13-0.27-0.5-0.26-0.85-0.73-0.36-0.47-0.56-1.11-0.19-0.64-0.19-1.38zm1.17 0.14q0 0.5 0.11 0.95 0.11 0.45 0.33 0.79 0.23 0.35 0.58 0.55 0.35 0.2 0.83 0.2 0.3 0 0.54-0.07 0.25-0.07 0.44-0.2 0.2-0.13 0.35-0.31 0.15-0.19 0.27-0.41v-3.18q-0.23-0.42-0.62-0.69-0.39-0.27-0.96-0.27-0.5 0-0.85 0.2-0.35 0.2-0.58 0.55-0.22 0.35-0.33 0.8-0.11 0.45-0.11 0.95zm11.37 3.36q-0.07-0.13-0.11-0.33-0.04-0.2-0.06-0.42-0.18 0.18-0.4 0.34-0.22 0.16-0.48 0.28-0.26 0.12-0.56 0.19-0.3 0.07-0.64 0.07-0.54 0-0.99-0.16-0.44-0.16-0.75-0.42-0.3-0.28-0.47-0.65-0.17-0.37-0.17-0.8 0-0.57 0.22-0.99 0.23-0.43 0.65-0.71 0.41-0.28 0.99-0.42 0.58-0.14 1.3-0.14h1.28v-0.54q0-0.31-0.11-0.56-0.12-0.25-0.33-0.42-0.21-0.18-0.51-0.27-0.3-0.1-0.68-0.1-0.35 0-0.62 0.09-0.28 0.09-0.47 0.24-0.19 0.14-0.3 0.35-0.1 0.19-0.1 0.41h-1.18q0.01-0.38 0.19-0.74 0.19-0.36 0.54-0.65 0.36-0.29 0.86-0.46 0.51-0.18 1.15-0.18 0.58 0 1.08 0.14 0.5 0.14 0.87 0.44 0.36 0.28 0.57 0.71 0.21 0.43 0.21 1.01v3.19q0 0.35 0.07 0.73 0.06 0.39 0.18 0.67v0.1zm-2.08-0.89q0.34 0 0.64-0.09 0.3-0.09 0.54-0.24 0.25-0.14 0.43-0.33 0.17-0.19 0.27-0.39v-1.39h-1.09q-1.03 0-1.6 0.3-0.57 0.31-0.57 0.96 0 0.26 0.08 0.47 0.09 0.22 0.26 0.38 0.18 0.15 0.44 0.24 0.26 0.09 0.6 0.09zm8.15-7.64v1.66h2.61v0.91h-2.61v3.73q0 0.41 0.1 0.66 0.1 0.27 0.28 0.42 0.18 0.16 0.41 0.22 0.23 0.06 0.49 0.06 0.19 0 0.4-0.02 0.2-0.02 0.39-0.05 0.2-0.03 0.36-0.07 0.17-0.03 0.28-0.06l0.17 0.83q-0.15 0.09-0.36 0.16-0.21 0.06-0.46 0.11-0.24 0.05-0.52 0.07-0.28 0.03-0.55 0.03-0.46 0-0.86-0.13-0.39-0.13-0.68-0.41-0.3-0.28-0.47-0.73-0.16-0.45-0.16-1.09v-3.73h-1.8v-0.91h1.8v-1.66zm9.54 8.53q-0.07-0.13-0.11-0.33-0.04-0.2-0.06-0.42-0.18 0.18-0.4 0.34-0.22 0.16-0.48 0.28-0.26 0.12-0.56 0.19-0.3 0.07-0.64 0.07-0.54 0-0.99-0.16-0.44-0.16-0.75-0.42-0.3-0.28-0.47-0.65-0.17-0.37-0.17-0.8 0-0.57 0.22-0.99 0.23-0.43 0.65-0.71 0.41-0.28 0.99-0.42 0.58-0.14 1.3-0.14h1.28v-0.54q0-0.31-0.11-0.56-0.12-0.25-0.33-0.42-0.21-0.18-0.51-0.27-0.3-0.1-0.68-0.1-0.34 0-0.62 0.09-0.28 0.09-0.47 0.24-0.19 0.14-0.3 0.35-0.1 0.19-0.1 0.41h-1.18q0.01-0.38 0.19-0.74 0.19-0.36 0.54-0.65 0.36-0.29 0.86-0.46 0.51-0.18 1.15-0.18 0.58 0 1.08 0.14 0.5 0.14 0.87 0.44 0.37 0.28 0.57 0.71 0.21 0.43 0.21 1.01v3.19q0 0.35 0.07 0.73 0.06 0.39 0.18 0.67v0.1zm-2.08-0.89q0.34 0 0.64-0.09 0.3-0.09 0.54-0.24 0.25-0.14 0.43-0.33 0.17-0.19 0.27-0.39v-1.39h-1.09q-1.03 0-1.6 0.3-0.57 0.31-0.57 0.96 0 0.26 0.08 0.47 0.09 0.22 0.26 0.38 0.18 0.15 0.44 0.24 0.26 0.09 0.6 0.09zm10.5-2.67h-4.85v-0.96h4.85zm5.6 2.73q0.32 0 0.62-0.1 0.3-0.1 0.54-0.28 0.23-0.18 0.37-0.42 0.15-0.25 0.16-0.54h1.11q-0.01 0.46-0.24 0.88-0.23 0.41-0.62 0.73-0.39 0.31-0.89 0.5-0.5 0.19-1.05 0.18-0.78 0-1.36-0.27-0.59-0.28-0.98-0.75-0.39-0.48-0.58-1.1-0.2-0.62-0.2-1.3v-0.27q0-0.68 0.2-1.3 0.19-0.62 0.58-1.09 0.39-0.48 0.98-0.76 0.58-0.28 1.36-0.28 0.61 0 1.12 0.2 0.51 0.19 0.88 0.53 0.38 0.33 0.59 0.78 0.21 0.46 0.21 0.98h-1.11q-0.01-0.31-0.14-0.58-0.13-0.28-0.35-0.49-0.23-0.21-0.54-0.33-0.3-0.12-0.66-0.12-0.54 0-0.92 0.22-0.37 0.22-0.59 0.57-0.23 0.35-0.33 0.79-0.1 0.44-0.1 0.88v0.27q0 0.45 0.1 0.89 0.1 0.44 0.32 0.8 0.23 0.34 0.6 0.57 0.37 0.21 0.92 0.21zm5.07-8.92h3.51v8.73h2.24v1.02h-5.75v-1.02h2.33v-7.71h-2.33zm7.81 2.88h3.51v5.85h2.24v1.02h-5.75v-1.02h2.33v-4.83h-2.33zm2.18-1.8q0-0.29 0.17-0.49 0.18-0.2 0.53-0.2 0.35 0 0.53 0.2 0.18 0.2 0.18 0.49 0 0.29-0.18 0.48-0.18 0.19-0.53 0.19-0.35 0-0.53-0.19-0.17-0.19-0.17-0.48zm8.47 8.8q-0.72 0-1.33-0.25-0.6-0.25-1.03-0.69-0.44-0.45-0.68-1.05-0.24-0.61-0.24-1.33v-0.27q0-0.83 0.27-1.48 0.26-0.66 0.7-1.11 0.45-0.46 1.01-0.7 0.56-0.24 1.15-0.24 0.74 0 1.3 0.26 0.56 0.25 0.92 0.71 0.37 0.45 0.55 1.06 0.18 0.62 0.18 1.34v0.52h-4.9q0.02 0.47 0.17 0.89 0.17 0.41 0.45 0.72 0.28 0.3 0.68 0.48 0.39 0.18 0.87 0.18 0.63 0 1.12-0.25 0.48-0.26 0.81-0.68l0.71 0.56q-0.17 0.26-0.43 0.5-0.25 0.24-0.59 0.42-0.33 0.19-0.76 0.29-0.42 0.12-0.93 0.12zm-0.15-6.16q-0.35 0-0.67 0.13-0.32 0.13-0.57 0.39-0.26 0.24-0.43 0.61-0.18 0.36-0.24 0.84h3.69v-0.09q-0.02-0.34-0.13-0.68-0.11-0.34-0.33-0.6-0.21-0.27-0.54-0.43-0.33-0.17-0.78-0.17zm5.98-0.84l0.08 1.02q0.38-0.53 0.92-0.83 0.55-0.31 1.22-0.31 0.54 0 0.98 0.15 0.44 0.15 0.76 0.47 0.31 0.33 0.47 0.83 0.17 0.5 0.17 1.18v4.36h-1.17v-4.33q0-0.46-0.1-0.78-0.1-0.32-0.31-0.51-0.19-0.2-0.49-0.29-0.28-0.09-0.66-0.09-0.59 0-1.04 0.3-0.44 0.29-0.71 0.78v4.92h-1.17v-6.87zm9.53-1.66v1.66h2.62v0.91h-2.62v3.73q0 0.4 0.1 0.66 0.1 0.26 0.28 0.42 0.18 0.16 0.41 0.22 0.23 0.06 0.49 0.06 0.19 0 0.4-0.02 0.2-0.02 0.39-0.05 0.2-0.04 0.36-0.07 0.17-0.04 0.28-0.06l0.17 0.83q-0.15 0.09-0.36 0.16-0.21 0.06-0.46 0.11-0.24 0.05-0.52 0.07-0.28 0.03-0.55 0.03-0.46 0-0.86-0.13-0.39-0.13-0.68-0.41-0.29-0.29-0.46-0.73-0.17-0.45-0.17-1.09v-3.73h-1.8v-0.91h1.8v-1.66zm10.16 4.97h-4.85v-0.96h4.85zm3.73-3.31l0.08 1.01q0.38-0.53 0.92-0.83 0.55-0.3 1.22-0.31 0.54 0 0.98 0.15 0.44 0.16 0.75 0.48 0.32 0.32 0.48 0.82 0.17 0.5 0.17 1.19v4.36h-1.17v-4.34q0-0.46-0.1-0.77-0.11-0.32-0.31-0.52-0.2-0.19-0.49-0.28-0.28-0.09-0.66-0.09-0.59 0-1.04 0.3-0.44 0.29-0.71 0.77v4.93h-1.17v-6.87zm11.26 6.87q-0.07-0.14-0.11-0.33-0.04-0.21-0.06-0.42-0.18 0.18-0.4 0.33-0.21 0.16-0.48 0.28-0.26 0.12-0.56 0.19-0.3 0.07-0.63 0.07-0.55 0-0.99-0.16-0.44-0.15-0.75-0.42-0.31-0.27-0.48-0.64-0.16-0.38-0.16-0.81 0-0.56 0.22-0.99 0.23-0.42 0.64-0.7 0.41-0.29 0.99-0.43 0.58-0.14 1.3-0.14h1.28v-0.54q0-0.31-0.11-0.56-0.12-0.24-0.32-0.41-0.22-0.18-0.52-0.28-0.3-0.09-0.67-0.09-0.35 0-0.63 0.09-0.27 0.09-0.46 0.23-0.19 0.15-0.3 0.35-0.1 0.2-0.1 0.41h-1.18q0-0.37 0.19-0.73 0.19-0.36 0.54-0.65 0.35-0.29 0.85-0.47 0.51-0.18 1.15-0.18 0.58 0 1.09 0.15 0.5 0.14 0.86 0.43 0.37 0.28 0.58 0.72 0.21 0.43 0.21 1.01v3.19q0 0.34 0.06 0.73 0.06 0.38 0.18 0.66v0.11zm-2.08-0.9q0.35 0 0.64-0.09 0.3-0.09 0.54-0.23 0.25-0.15 0.43-0.33 0.18-0.19 0.28-0.4v-1.39h-1.09q-1.03 0-1.6 0.31-0.58 0.3-0.57 0.96-0.01 0.25 0.08 0.47 0.09 0.21 0.26 0.37 0.17 0.15 0.43 0.24 0.26 0.09 0.6 0.09zm5.91-5.97l0.03 0.65q0.21-0.37 0.55-0.57 0.34-0.2 0.83-0.21 0.94 0 1.26 0.74 0.2-0.33 0.53-0.53 0.34-0.2 0.81-0.21 0.76 0 1.17 0.46 0.4 0.47 0.4 1.41v5.13h-1.12v-5.15q0-0.86-0.79-0.85-0.21 0-0.36 0.06-0.15 0.05-0.25 0.15-0.11 0.1-0.16 0.23-0.06 0.13-0.08 0.27v5.29h-1.12v-5.15q0-0.41-0.18-0.64-0.18-0.22-0.58-0.21-0.37 0-0.58 0.14-0.2 0.15-0.29 0.39v5.47h-1.12v-6.87zm10.3 6.99q-0.72 0-1.33-0.24-0.61-0.25-1.04-0.7-0.43-0.44-0.67-1.05-0.24-0.61-0.24-1.33v-0.26q0-0.83 0.27-1.49 0.26-0.66 0.7-1.11 0.44-0.46 1-0.7 0.57-0.24 1.16-0.24 0.74 0 1.29 0.26 0.56 0.26 0.93 0.71 0.37 0.45 0.55 1.07 0.18 0.62 0.18 1.33v0.53h-4.91q0.02 0.47 0.18 0.88 0.17 0.41 0.45 0.72 0.28 0.31 0.67 0.49 0.4 0.17 0.87 0.17 0.63 0.01 1.12-0.25 0.49-0.25 0.81-0.67l0.72 0.56q-0.17 0.26-0.43 0.5-0.25 0.23-0.59 0.42-0.34 0.18-0.76 0.29-0.43 0.11-0.93 0.11zm-0.15-6.15q-0.36 0-0.67 0.13-0.32 0.13-0.58 0.38-0.25 0.25-0.43 0.62-0.17 0.36-0.24 0.83h3.7v-0.08q-0.02-0.35-0.14-0.68-0.11-0.34-0.32-0.61-0.22-0.26-0.55-0.43-0.32-0.16-0.77-0.16zm10.59 1.08h-5.67v-1.03h5.67zm0 2.64h-5.67v-1.02h5.67zm4.24-6.74l-0.13 2.35h-0.83l0.01-2.25v-0.79h0.95zm2.27 0l-0.13 2.35h-0.82v-2.25-0.79h0.96zm6.16 4.45l2.11-4.64h1.33l-2.88 5.8-0.01 3.44h-1.1l-0.02-3.44-2.87-5.8h1.34zm4.75 1.11q0-0.75 0.22-1.38 0.21-0.64 0.61-1.11 0.41-0.47 0.99-0.74 0.58-0.27 1.3-0.27 0.73 0 1.31 0.27 0.58 0.27 0.98 0.74 0.41 0.47 0.62 1.11 0.22 0.63 0.22 1.38v0.14q0 0.74-0.22 1.37-0.21 0.64-0.62 1.11-0.4 0.47-0.98 0.73-0.57 0.27-1.3 0.27-0.73 0-1.31-0.27-0.58-0.26-0.99-0.73-0.4-0.47-0.61-1.11-0.22-0.63-0.22-1.37zm1.18 0.14q0 0.5 0.12 0.97 0.12 0.46 0.36 0.8 0.25 0.35 0.62 0.56 0.36 0.2 0.85 0.2 0.48 0 0.85-0.2 0.36-0.21 0.61-0.56 0.24-0.34 0.36-0.8 0.12-0.47 0.12-0.97v-0.14q0-0.5-0.12-0.96-0.12-0.46-0.37-0.81-0.24-0.35-0.61-0.56-0.36-0.2-0.85-0.21-0.49 0.01-0.85 0.21-0.36 0.21-0.61 0.56-0.24 0.35-0.36 0.81-0.12 0.46-0.12 0.96zm11.42 2.41q-0.35 0.51-0.86 0.79-0.51 0.28-1.19 0.28-0.54 0-0.97-0.16-0.44-0.17-0.75-0.53-0.32-0.36-0.49-0.9-0.16-0.55-0.16-1.32v-4.08h1.17v4.09q0 0.56 0.09 0.93 0.09 0.37 0.27 0.59 0.18 0.21 0.43 0.3 0.26 0.09 0.6 0.09 0.71 0 1.15-0.29 0.45-0.29 0.66-0.79v-4.92h1.18v6.86h-1.06zm7.85-6.04q0.16 0 0.34 0.01 0.18 0 0.34 0.03 0.16 0.02 0.3 0.05 0.14 0.03 0.22 0.07l-0.15 1.15q-0.35-0.08-0.66-0.11-0.3-0.04-0.64-0.04-0.82 0-1.34 0.38-0.51 0.37-0.75 1.05v4.4h-1.18v-6.87h1.12l0.06 1.09q0.41-0.56 1-0.88 0.59-0.33 1.34-0.33zm17.1 4.21q-0.08 0.64-0.33 1.18-0.25 0.53-0.65 0.92-0.39 0.38-0.94 0.6-0.54 0.21-1.2 0.21-0.58 0-1.04-0.16-0.47-0.17-0.84-0.45-0.36-0.29-0.62-0.67-0.27-0.39-0.44-0.85-0.17-0.46-0.26-0.96-0.09-0.5-0.09-1.01v-1.29q0-0.52 0.09-1.02 0.09-0.5 0.26-0.96 0.17-0.45 0.44-0.84 0.26-0.39 0.62-0.68 0.37-0.28 0.84-0.44 0.46-0.17 1.04-0.17 0.69 0 1.23 0.22 0.55 0.21 0.94 0.6 0.4 0.39 0.63 0.93 0.24 0.55 0.32 1.21h-1.18q-0.05-0.42-0.19-0.78-0.14-0.36-0.38-0.64-0.23-0.27-0.57-0.42-0.34-0.16-0.8-0.16-0.42 0-0.75 0.14-0.31 0.13-0.55 0.37-0.23 0.23-0.39 0.54-0.15 0.31-0.24 0.66-0.1 0.35-0.14 0.72-0.04 0.36-0.04 0.71v1.3q0 0.34 0.04 0.71 0.04 0.36 0.14 0.72 0.09 0.34 0.24 0.66 0.16 0.31 0.39 0.55 0.24 0.23 0.55 0.37 0.32 0.14 0.75 0.14 0.46 0 0.8-0.15 0.34-0.15 0.57-0.41 0.24-0.26 0.38-0.62 0.14-0.36 0.19-0.78zm1.5-0.72q0-0.74 0.21-1.37 0.22-0.65 0.62-1.12 0.4-0.46 0.98-0.73 0.58-0.27 1.3-0.27 0.73 0 1.31 0.27 0.58 0.27 0.98 0.73 0.41 0.47 0.63 1.12 0.21 0.63 0.21 1.37v0.14q0 0.75-0.21 1.38-0.22 0.64-0.63 1.1-0.4 0.47-0.97 0.74-0.58 0.27-1.3 0.27-0.74 0-1.32-0.27-0.58-0.27-0.98-0.74-0.4-0.46-0.62-1.1-0.21-0.63-0.21-1.38zm1.17 0.14q0 0.51 0.12 0.97 0.12 0.46 0.36 0.81 0.25 0.35 0.62 0.55 0.37 0.21 0.86 0.21 0.48 0 0.84-0.21 0.37-0.2 0.61-0.55 0.25-0.35 0.37-0.81 0.12-0.46 0.12-0.97v-0.14q0-0.5-0.13-0.96-0.12-0.46-0.37-0.81-0.24-0.35-0.61-0.55-0.36-0.21-0.85-0.21-0.49 0-0.85 0.21-0.36 0.2-0.61 0.55-0.24 0.35-0.36 0.81-0.12 0.46-0.12 0.96zm7.5-3.51l0.03 0.65q0.21-0.36 0.55-0.57 0.34-0.2 0.83-0.2 0.94 0 1.26 0.73 0.2-0.33 0.53-0.53 0.34-0.2 0.81-0.2 0.76 0 1.17 0.46 0.4 0.46 0.4 1.4v5.13h-1.11v-5.14q0-0.86-0.8-0.86-0.21 0-0.36 0.06-0.15 0.06-0.25 0.16-0.11 0.09-0.16 0.23-0.06 0.12-0.08 0.26v5.29h-1.12v-5.15q0-0.41-0.18-0.63-0.18-0.22-0.58-0.22-0.37 0-0.57 0.15-0.21 0.14-0.3 0.39v5.46h-1.12v-6.87zm13.06 3.51q0 0.74-0.18 1.38-0.17 0.64-0.52 1.1-0.34 0.47-0.85 0.74-0.5 0.27-1.15 0.27-0.62 0-1.11-0.21-0.47-0.2-0.81-0.58v3.3h-1.18v-9.51h1.07l0.06 0.75q0.34-0.42 0.83-0.65 0.48-0.22 1.13-0.22 0.66 0 1.16 0.26 0.51 0.26 0.85 0.72 0.35 0.46 0.52 1.11 0.18 0.64 0.18 1.41zm-1.17-0.13q0-0.51-0.12-0.96-0.1-0.45-0.34-0.8-0.23-0.34-0.58-0.55-0.36-0.2-0.85-0.2-0.57 0-0.96 0.27-0.38 0.26-0.6 0.67v3.31q0.22 0.4 0.6 0.66 0.39 0.26 0.97 0.26 0.49 0 0.84-0.21 0.36-0.21 0.59-0.56 0.23-0.34 0.33-0.8 0.12-0.46 0.12-0.96zm7.7 3.49q-0.07-0.13-0.12-0.33-0.03-0.2-0.05-0.42-0.18 0.18-0.4 0.34-0.22 0.16-0.49 0.28-0.26 0.12-0.55 0.19-0.3 0.07-0.64 0.07-0.55 0-0.99-0.16-0.44-0.16-0.75-0.43-0.3-0.27-0.47-0.64-0.17-0.37-0.17-0.8 0-0.57 0.22-0.99 0.23-0.43 0.64-0.71 0.42-0.28 0.99-0.42 0.59-0.14 1.31-0.14h1.28v-0.54q0-0.31-0.12-0.56-0.11-0.25-0.32-0.42-0.21-0.18-0.51-0.27-0.3-0.1-0.68-0.1-0.35 0-0.63 0.09-0.27 0.09-0.46 0.23-0.19 0.15-0.3 0.35-0.1 0.2-0.1 0.42h-1.18q0.01-0.38 0.19-0.74 0.19-0.36 0.54-0.65 0.36-0.29 0.86-0.47 0.5-0.17 1.15-0.17 0.58 0 1.08 0.14 0.5 0.14 0.86 0.43 0.37 0.29 0.58 0.72 0.21 0.43 0.21 1.01v3.19q0 0.35 0.07 0.73 0.06 0.38 0.17 0.67v0.1zm-2.07-0.89q0.34 0 0.64-0.09 0.3-0.09 0.54-0.24 0.25-0.14 0.42-0.33 0.18-0.19 0.28-0.39v-1.39h-1.09q-1.03 0-1.6 0.3-0.57 0.31-0.57 0.96 0 0.26 0.08 0.47 0.09 0.22 0.26 0.38 0.17 0.15 0.43 0.24 0.26 0.09 0.61 0.09zm6.42-5.98l0.08 1.02q0.38-0.53 0.92-0.83 0.55-0.31 1.22-0.31 0.54 0 0.98 0.15 0.44 0.15 0.76 0.47 0.31 0.33 0.47 0.83 0.17 0.49 0.17 1.18v4.36h-1.17v-4.33q0-0.46-0.1-0.78-0.1-0.32-0.31-0.51-0.19-0.2-0.49-0.29-0.28-0.09-0.66-0.09-0.59 0-1.04 0.3-0.44 0.29-0.71 0.77v4.93h-1.17v-6.87zm9.28 4.43l0.3 0.83 2.1-5.26h1.31l-3.48 7.93q-0.13 0.27-0.32 0.57-0.18 0.29-0.45 0.55-0.26 0.25-0.62 0.42-0.35 0.17-0.82 0.17-0.08 0.01-0.18-0.01-0.1 0-0.2-0.02-0.11-0.02-0.19-0.04-0.09-0.01-0.15-0.03l0.19-0.96q0.04 0 0.12 0.01 0.08 0.01 0.16 0.01 0.08 0.01 0.16 0.01 0.07 0.01 0.12 0.01 0.24 0 0.44-0.14 0.2-0.13 0.35-0.31 0.16-0.19 0.27-0.39 0.11-0.19 0.18-0.32l0.47-0.91-2.96-6.55h1.31zm8.32-6.6l-0.13 2.33h-0.88l0.01-2.23v-0.81h1zm9.34 7.22q-0.01-0.2-0.09-0.37-0.08-0.17-0.28-0.31-0.19-0.14-0.52-0.26-0.32-0.12-0.8-0.21-0.59-0.12-1.08-0.29-0.49-0.17-0.83-0.41-0.35-0.24-0.54-0.56-0.19-0.32-0.19-0.75 0-0.42 0.2-0.78 0.2-0.37 0.55-0.64 0.36-0.27 0.85-0.43 0.49-0.16 1.08-0.16 0.64 0 1.14 0.17 0.51 0.16 0.87 0.45 0.35 0.3 0.54 0.69 0.2 0.39 0.2 0.84h-1.17q0-0.23-0.12-0.44-0.11-0.21-0.32-0.38-0.2-0.16-0.49-0.26-0.29-0.1-0.65-0.1-0.37 0-0.66 0.08-0.28 0.08-0.47 0.22-0.18 0.14-0.28 0.32-0.09 0.19-0.09 0.38 0 0.21 0.07 0.37 0.08 0.16 0.26 0.28 0.19 0.13 0.5 0.23 0.32 0.1 0.8 0.2 0.64 0.13 1.14 0.31 0.5 0.17 0.85 0.42 0.34 0.24 0.52 0.56 0.18 0.33 0.18 0.75 0 0.46-0.21 0.83-0.2 0.38-0.57 0.64-0.37 0.27-0.88 0.42-0.52 0.14-1.13 0.14-0.7 0-1.24-0.18-0.55-0.19-0.93-0.5-0.37-0.31-0.58-0.71-0.19-0.41-0.19-0.85h1.17q0.03 0.36 0.19 0.61 0.17 0.25 0.42 0.4 0.25 0.15 0.56 0.22 0.3 0.06 0.6 0.06 0.75 0 1.18-0.27 0.43-0.27 0.44-0.73zm16.84 1.83h-1.2l-3.58-6.91-0.02 6.91h-1.19v-9.25h1.19l3.59 6.9 0.02-6.9h1.19zm6.53 0q-0.07-0.13-0.12-0.33-0.04-0.2-0.05-0.42-0.18 0.18-0.4 0.34-0.22 0.16-0.49 0.28-0.26 0.12-0.55 0.19-0.3 0.07-0.64 0.07-0.55 0-0.99-0.16-0.44-0.16-0.75-0.42-0.3-0.28-0.48-0.64-0.16-0.38-0.16-0.81 0-0.57 0.22-0.99 0.23-0.43 0.64-0.71 0.42-0.28 0.99-0.42 0.59-0.14 1.3-0.14h1.29v-0.54q0-0.31-0.12-0.56-0.11-0.25-0.32-0.42-0.21-0.18-0.52-0.27-0.29-0.1-0.67-0.1-0.35 0-0.63 0.09-0.27 0.09-0.46 0.24-0.19 0.14-0.3 0.35-0.1 0.19-0.1 0.41h-1.18q0.01-0.37 0.19-0.74 0.19-0.36 0.54-0.64 0.35-0.3 0.86-0.47 0.5-0.18 1.15-0.18 0.58 0 1.08 0.14 0.5 0.14 0.86 0.44 0.37 0.28 0.58 0.71 0.21 0.44 0.21 1.01v3.2q0 0.34 0.06 0.73 0.07 0.38 0.18 0.66v0.1zm-2.07-0.89q0.34 0 0.64-0.09 0.3-0.09 0.54-0.24 0.24-0.14 0.42-0.33 0.18-0.19 0.28-0.39v-1.39h-1.09q-1.03 0-1.6 0.31-0.57 0.3-0.57 0.95 0 0.26 0.08 0.47 0.09 0.22 0.26 0.38 0.17 0.15 0.43 0.24 0.26 0.09 0.61 0.09zm5.91-5.97l0.03 0.64q0.21-0.36 0.54-0.56 0.35-0.2 0.83-0.21 0.94 0 1.26 0.73 0.2-0.32 0.54-0.52 0.33-0.2 0.81-0.21 0.75 0 1.16 0.46 0.41 0.47 0.41 1.4v5.13h-1.12v-5.14q0-0.86-0.79-0.86-0.21 0.01-0.37 0.06-0.15 0.06-0.25 0.16-0.1 0.1-0.16 0.23-0.06 0.13-0.08 0.27v5.28h-1.11v-5.14q0-0.42-0.19-0.64-0.18-0.22-0.58-0.22-0.37 0.01-0.57 0.15-0.21 0.15-0.3 0.39v5.46h-1.12v-6.86zm10.3 6.99q-0.72 0-1.33-0.25-0.6-0.24-1.03-0.69-0.44-0.44-0.68-1.05-0.24-0.61-0.24-1.33v-0.27q0-0.83 0.27-1.48 0.27-0.66 0.7-1.11 0.45-0.46 1.01-0.7 0.56-0.24 1.15-0.24 0.74 0 1.3 0.26 0.56 0.25 0.92 0.71 0.37 0.45 0.55 1.07 0.18 0.61 0.18 1.33v0.53h-4.9q0.02 0.47 0.17 0.88 0.17 0.41 0.45 0.72 0.28 0.31 0.68 0.48 0.39 0.18 0.87 0.18 0.63 0 1.12-0.25 0.48-0.26 0.81-0.67l0.72 0.55q-0.18 0.26-0.44 0.51-0.25 0.23-0.59 0.41-0.33 0.19-0.76 0.3-0.42 0.11-0.93 0.11zm-0.15-6.16q-0.35 0-0.67 0.14-0.32 0.12-0.57 0.38-0.26 0.25-0.43 0.61-0.18 0.37-0.24 0.84h3.69v-0.09q-0.02-0.34-0.13-0.68-0.11-0.33-0.33-0.6-0.21-0.27-0.54-0.43-0.33-0.17-0.78-0.17zm7.03-3.02l-0.13 2.34h-0.83l0.01-2.24v-0.8h0.95zm2.27 0l-0.14 2.35h-0.82l0.01-2.25v-0.79h0.95zm-293.47 25.57q0-0.77 0.19-1.41 0.2-0.65 0.55-1.11 0.36-0.46 0.87-0.73 0.51-0.25 1.14-0.26 0.61 0.01 1.07 0.21 0.46 0.21 0.8 0.6v-3.56h1.18v9.75h-1.08l-0.05-0.72q-0.35 0.42-0.82 0.63-0.48 0.22-1.11 0.22-0.63 0-1.13-0.27-0.51-0.27-0.86-0.74-0.36-0.47-0.55-1.1-0.2-0.64-0.2-1.38zm1.17 0.13q0 0.51 0.11 0.96 0.11 0.45 0.33 0.79 0.23 0.34 0.58 0.55 0.35 0.19 0.84 0.19 0.3 0 0.54-0.07 0.24-0.07 0.44-0.19 0.19-0.14 0.34-0.31 0.16-0.19 0.27-0.41v-3.19q-0.23-0.42-0.61-0.68-0.39-0.28-0.97-0.28-0.5 0-0.85 0.21-0.35 0.2-0.58 0.55-0.22 0.34-0.33 0.8-0.11 0.45-0.11 0.95zm11.37 3.36q-0.07-0.13-0.11-0.33-0.04-0.2-0.06-0.42-0.18 0.18-0.4 0.34-0.21 0.16-0.48 0.28-0.26 0.12-0.56 0.19-0.3 0.07-0.63 0.07-0.55 0-0.99-0.16-0.44-0.16-0.75-0.43-0.31-0.27-0.48-0.64-0.16-0.37-0.16-0.8 0-0.57 0.22-1 0.23-0.42 0.64-0.7 0.41-0.29 0.99-0.42 0.58-0.14 1.3-0.14h1.28v-0.54q0-0.31-0.11-0.56-0.12-0.25-0.33-0.42-0.21-0.18-0.51-0.27-0.3-0.1-0.67-0.1-0.35 0-0.63 0.09-0.27 0.09-0.46 0.23-0.2 0.15-0.3 0.35-0.1 0.2-0.1 0.42h-1.18q0-0.38 0.19-0.74 0.19-0.36 0.54-0.65 0.35-0.29 0.85-0.47 0.51-0.18 1.15-0.18 0.58 0.01 1.09 0.15 0.5 0.14 0.86 0.43 0.37 0.29 0.58 0.72 0.21 0.43 0.21 1.01v3.19q0 0.34 0.06 0.73 0.06 0.38 0.18 0.67v0.1zm-2.08-0.9q0.34 0 0.64-0.08 0.3-0.09 0.54-0.24 0.25-0.14 0.43-0.33 0.18-0.19 0.28-0.39v-1.39h-1.09q-1.03 0-1.6 0.3-0.58 0.31-0.58 0.96 0 0.25 0.09 0.47 0.09 0.22 0.26 0.37 0.17 0.16 0.43 0.25 0.26 0.08 0.6 0.08zm8.15-7.63v1.66h2.62v0.91h-2.62v3.73q0 0.4 0.1 0.66 0.11 0.26 0.28 0.42 0.18 0.15 0.41 0.22 0.23 0.06 0.49 0.06 0.2 0 0.4-0.02 0.2-0.02 0.39-0.06 0.2-0.03 0.36-0.06 0.18-0.04 0.28-0.06l0.17 0.83q-0.15 0.09-0.36 0.16-0.21 0.06-0.45 0.1-0.25 0.06-0.53 0.08-0.27 0.03-0.55 0.03-0.45 0-0.85-0.13-0.4-0.13-0.69-0.41-0.29-0.29-0.46-0.73-0.17-0.45-0.17-1.09v-3.73h-1.8v-0.91h1.8v-1.66zm9.54 8.53q-0.07-0.13-0.11-0.33-0.04-0.2-0.06-0.42-0.18 0.18-0.4 0.34-0.21 0.16-0.48 0.28-0.26 0.12-0.56 0.19-0.3 0.07-0.63 0.07-0.55 0-0.99-0.16-0.44-0.16-0.75-0.43-0.31-0.27-0.48-0.64-0.16-0.37-0.16-0.8 0-0.57 0.22-1 0.23-0.42 0.64-0.7 0.41-0.29 0.99-0.42 0.58-0.14 1.3-0.14h1.28v-0.54q0-0.31-0.11-0.56-0.12-0.25-0.33-0.42-0.2-0.18-0.51-0.27-0.3-0.1-0.67-0.1-0.35 0-0.63 0.09-0.27 0.09-0.46 0.23-0.19 0.15-0.3 0.35-0.1 0.2-0.1 0.42h-1.18q0-0.38 0.19-0.74 0.19-0.36 0.54-0.65 0.35-0.29 0.85-0.47 0.51-0.18 1.15-0.18 0.58 0.01 1.09 0.15 0.5 0.14 0.86 0.43 0.37 0.29 0.58 0.72 0.21 0.43 0.21 1.01v3.19q0 0.34 0.06 0.73 0.06 0.38 0.18 0.67v0.1zm-2.08-0.9q0.35 0 0.64-0.08 0.3-0.09 0.54-0.24 0.25-0.14 0.43-0.33 0.18-0.19 0.28-0.39v-1.39h-1.09q-1.03 0-1.6 0.3-0.58 0.31-0.57 0.96-0.01 0.25 0.08 0.47 0.09 0.22 0.26 0.37 0.17 0.16 0.43 0.25 0.26 0.08 0.6 0.08zm10.51-2.66h-4.86v-0.97h4.86zm4.42 3.56v-5.96h-1.89v-0.9h1.89v-0.49q0-0.66 0.19-1.15 0.2-0.5 0.55-0.84 0.35-0.33 0.85-0.51 0.49-0.17 1.1-0.17 0.42 0 0.82 0.07 0.4 0.07 0.82 0.18l-0.14 0.97q-0.27-0.09-0.61-0.15-0.35-0.07-0.74-0.07-0.83 0.01-1.24 0.42-0.42 0.41-0.42 1.25v0.49h2.65v0.9h-2.65v5.96zm5.73-3.49q0-0.75 0.21-1.38 0.22-0.64 0.62-1.11 0.41-0.47 0.98-0.74 0.58-0.27 1.3-0.27 0.73 0 1.31 0.27 0.59 0.27 0.99 0.74 0.4 0.47 0.62 1.11 0.21 0.63 0.21 1.38v0.14q0 0.74-0.21 1.37-0.22 0.64-0.62 1.11-0.4 0.47-0.98 0.73-0.58 0.27-1.3 0.27-0.73 0-1.32-0.27-0.57-0.26-0.98-0.73-0.4-0.47-0.62-1.11-0.21-0.63-0.21-1.37zm1.17 0.14q0 0.5 0.12 0.97 0.12 0.46 0.36 0.8 0.25 0.35 0.62 0.56 0.37 0.2 0.86 0.2 0.48 0 0.84-0.2 0.37-0.21 0.61-0.56 0.25-0.34 0.37-0.8 0.12-0.47 0.12-0.97v-0.14q0-0.5-0.13-0.96-0.12-0.46-0.37-0.81-0.24-0.35-0.6-0.56-0.37-0.2-0.86-0.21-0.48 0.01-0.85 0.21-0.36 0.21-0.61 0.56-0.24 0.35-0.36 0.81-0.12 0.46-0.12 0.96zm11.47-3.64q0.16 0 0.34 0.01 0.18 0.01 0.34 0.03 0.16 0.02 0.29 0.05 0.14 0.04 0.23 0.07l-0.16 1.15q-0.34-0.07-0.65-0.1-0.31-0.04-0.64-0.04-0.83 0-1.34 0.37-0.51 0.38-0.75 1.05v4.4h-1.18v-6.86h1.12l0.05 1.09q0.42-0.57 1.01-0.89 0.59-0.33 1.34-0.33zm3.84 0.13l0.03 0.64q0.21-0.36 0.55-0.56 0.34-0.2 0.83-0.21 0.94 0 1.26 0.74 0.2-0.33 0.53-0.53 0.34-0.2 0.81-0.21 0.76 0 1.17 0.46 0.4 0.47 0.4 1.41v5.12h-1.11v-5.14q-0.01-0.86-0.8-0.85-0.21 0-0.36 0.05-0.15 0.06-0.25 0.16-0.11 0.1-0.16 0.23-0.06 0.13-0.08 0.27v5.28h-1.12v-5.14q0-0.42-0.18-0.64-0.18-0.22-0.58-0.21-0.37 0-0.58 0.14-0.2 0.15-0.29 0.39v5.46h-1.12v-6.86zm12.4 3.3h-4.85v-0.96h4.85zm2.86-3.31h3.51v5.85h2.24v1.02h-5.75v-1.02h2.34v-4.83h-2.34zm2.18-1.8q0-0.29 0.17-0.49 0.18-0.2 0.54-0.2 0.35 0 0.52 0.2 0.18 0.2 0.18 0.49 0 0.29-0.18 0.48-0.17 0.19-0.52 0.19-0.36 0-0.54-0.19-0.17-0.19-0.17-0.48zm5.22 5.18q0-0.77 0.19-1.41 0.2-0.65 0.55-1.11 0.36-0.46 0.87-0.72 0.51-0.26 1.14-0.26 0.61 0 1.07 0.21 0.47 0.2 0.8 0.59v-3.56h1.18v9.75h-1.08l-0.05-0.72q-0.35 0.42-0.82 0.63-0.48 0.22-1.11 0.22-0.63 0-1.13-0.27-0.51-0.26-0.86-0.73-0.36-0.47-0.55-1.11-0.2-0.64-0.2-1.38zm1.18 0.14q0 0.5 0.1 0.95 0.11 0.45 0.33 0.79 0.23 0.34 0.58 0.55 0.35 0.2 0.84 0.19 0.3 0 0.54-0.06 0.24-0.07 0.44-0.2 0.19-0.13 0.35-0.31 0.15-0.19 0.26-0.41v-3.19q-0.23-0.41-0.61-0.68-0.39-0.27-0.97-0.27-0.49 0-0.85 0.2-0.35 0.2-0.58 0.55-0.22 0.34-0.33 0.8-0.1 0.45-0.1 0.95zm12.51-1.59h-5.67v-1.02h5.67zm0 2.63h-5.67v-1.01h5.67zm4.25-6.74l-0.13 2.34h-0.83l0.01-2.24v-0.8h0.95zm2.27 0l-0.14 2.35h-0.82l0.01-2.25v-0.79h0.95zm5.19 9.06v-5.96h-1.89v-0.91h1.89v-0.48q0-0.66 0.19-1.16 0.2-0.5 0.55-0.83 0.36-0.34 0.85-0.51 0.49-0.17 1.11-0.17 0.41 0 0.81 0.07 0.4 0.07 0.82 0.17l-0.14 0.98q-0.26-0.09-0.61-0.16-0.35-0.07-0.74-0.07-0.82 0.01-1.24 0.42-0.42 0.42-0.42 1.26v0.48h2.65v0.91h-2.65v5.96zm5.73-3.5q0-0.74 0.22-1.38 0.21-0.64 0.61-1.11 0.41-0.47 0.99-0.73 0.57-0.28 1.3-0.28 0.73 0 1.3 0.28 0.59 0.26 0.99 0.73 0.4 0.47 0.62 1.11 0.22 0.64 0.22 1.38v0.14q0 0.74-0.22 1.38-0.22 0.63-0.62 1.1-0.4 0.47-0.98 0.74-0.58 0.27-1.3 0.27-0.73 0-1.31-0.27-0.58-0.27-0.99-0.74-0.4-0.47-0.61-1.1-0.22-0.64-0.22-1.38zm1.17 0.14q0 0.51 0.13 0.97 0.12 0.46 0.36 0.81 0.24 0.35 0.61 0.55 0.37 0.2 0.86 0.2 0.48 0 0.84-0.2 0.37-0.2 0.61-0.55 0.25-0.35 0.37-0.81 0.12-0.46 0.12-0.97v-0.14q0-0.5-0.12-0.96-0.13-0.46-0.37-0.81-0.24-0.35-0.61-0.55-0.36-0.21-0.85-0.21-0.49 0-0.85 0.21-0.37 0.2-0.61 0.55-0.24 0.35-0.36 0.81-0.13 0.46-0.13 0.96zm11.47-3.64q0.16 0 0.34 0.02 0.18 0 0.34 0.03 0.16 0.02 0.3 0.05 0.14 0.03 0.22 0.07l-0.15 1.15q-0.35-0.08-0.66-0.11-0.3-0.04-0.64-0.04-0.82 0-1.34 0.38-0.51 0.37-0.75 1.04v4.41h-1.18v-6.87h1.12l0.06 1.09q0.41-0.56 1-0.89 0.59-0.33 1.34-0.33zm3.85 0.13l0.03 0.65q0.21-0.36 0.54-0.57 0.35-0.2 0.83-0.21 0.94 0 1.26 0.74 0.2-0.33 0.53-0.53 0.34-0.2 0.82-0.21 0.75 0 1.16 0.47 0.4 0.46 0.4 1.4v5.13h-1.11v-5.14q0-0.86-0.8-0.86-0.21 0-0.36 0.06-0.15 0.06-0.25 0.16-0.1 0.09-0.16 0.23-0.06 0.12-0.08 0.26v5.29h-1.11v-5.15q0-0.41-0.19-0.63-0.18-0.23-0.58-0.22-0.37 0-0.57 0.15-0.21 0.14-0.3 0.38v5.47h-1.12v-6.87zm12.4 3.31h-4.85v-0.97h4.85zm2.86-3.3h3.51v5.85h2.24v1.01h-5.75v-1.01h2.34v-4.83h-2.34zm2.18-1.8q0-0.3 0.18-0.49 0.17-0.21 0.53-0.21 0.35 0 0.53 0.21 0.17 0.19 0.17 0.49 0 0.28-0.17 0.47-0.18 0.19-0.53 0.19-0.36 0-0.53-0.19-0.18-0.19-0.18-0.47zm5.22 5.18q0-0.77 0.19-1.41 0.2-0.65 0.56-1.11 0.36-0.47 0.86-0.73 0.51-0.26 1.14-0.26 0.62 0 1.07 0.21 0.47 0.2 0.8 0.6v-3.56h1.18v9.75h-1.08l-0.05-0.73q-0.35 0.42-0.82 0.64-0.48 0.21-1.11 0.21-0.62 0-1.13-0.26-0.5-0.27-0.86-0.74-0.35-0.47-0.55-1.1-0.2-0.64-0.2-1.38zm1.18 0.13q0 0.5 0.1 0.95 0.11 0.45 0.33 0.8 0.23 0.34 0.58 0.54 0.35 0.2 0.84 0.2 0.3 0 0.54-0.07 0.24-0.07 0.44-0.2 0.19-0.13 0.35-0.31 0.15-0.18 0.26-0.4v-3.19q-0.23-0.42-0.61-0.69-0.39-0.27-0.97-0.27-0.49 0-0.85 0.2-0.35 0.21-0.58 0.56-0.22 0.34-0.33 0.8-0.1 0.45-0.1 0.95zm8.95-5.7l-0.13 2.35h-0.83l0.01-2.25v-0.79h0.95zm2.27 0l-0.13 2.35h-0.82v-2.25-0.8h0.96zm-168.55 25.57q0-0.77 0.19-1.41 0.19-0.64 0.55-1.11 0.36-0.46 0.87-0.72 0.51-0.26 1.13-0.26 0.62 0 1.08 0.21 0.46 0.2 0.8 0.59v-3.56h1.17v9.75h-1.08l-0.05-0.72q-0.34 0.42-0.82 0.63-0.47 0.22-1.11 0.22-0.62 0-1.13-0.27-0.5-0.26-0.85-0.73-0.36-0.47-0.56-1.11-0.19-0.64-0.19-1.38zm1.17 0.14q0 0.5 0.11 0.95 0.11 0.45 0.33 0.79 0.23 0.35 0.58 0.55 0.34 0.2 0.83 0.2 0.3 0 0.54-0.07 0.24-0.07 0.44-0.2 0.2-0.13 0.35-0.31 0.15-0.19 0.27-0.41v-3.18q-0.23-0.42-0.62-0.69-0.39-0.27-0.96-0.27-0.5 0-0.85 0.2-0.35 0.2-0.58 0.55-0.22 0.35-0.33 0.8-0.11 0.45-0.11 0.95zm11.37 3.36q-0.07-0.13-0.12-0.33-0.03-0.2-0.05-0.42-0.18 0.18-0.4 0.34-0.22 0.16-0.48 0.28-0.27 0.12-0.56 0.19-0.3 0.07-0.64 0.07-0.54 0-0.99-0.16-0.44-0.16-0.75-0.42-0.3-0.28-0.47-0.65-0.17-0.37-0.17-0.8 0-0.57 0.22-0.99 0.23-0.43 0.64-0.71 0.42-0.28 1-0.42 0.58-0.14 1.3-0.14h1.28v-0.54q0-0.31-0.12-0.56-0.11-0.25-0.32-0.42-0.21-0.18-0.51-0.27-0.3-0.1-0.68-0.1-0.35 0-0.62 0.09-0.28 0.09-0.47 0.24-0.19 0.14-0.3 0.35-0.1 0.19-0.1 0.41h-1.18q0.01-0.38 0.19-0.74 0.19-0.36 0.54-0.65 0.36-0.29 0.86-0.46 0.51-0.18 1.15-0.18 0.58 0 1.08 0.14 0.5 0.14 0.87 0.44 0.36 0.28 0.57 0.71 0.21 0.43 0.21 1.01v3.19q0 0.35 0.07 0.73 0.06 0.39 0.17 0.67v0.1zm-2.07-0.89q0.34 0 0.64-0.09 0.3-0.09 0.54-0.24 0.25-0.14 0.42-0.33 0.18-0.19 0.28-0.39v-1.39h-1.09q-1.03 0-1.6 0.3-0.57 0.31-0.57 0.96 0 0.26 0.08 0.47 0.09 0.22 0.26 0.38 0.17 0.15 0.44 0.24 0.25 0.09 0.6 0.09zm8.15-7.64v1.66h2.61v0.91h-2.61v3.73q0 0.41 0.1 0.66 0.1 0.27 0.28 0.42 0.18 0.16 0.41 0.22 0.23 0.06 0.49 0.06 0.19 0 0.39-0.02 0.21-0.02 0.4-0.05 0.19-0.03 0.36-0.07 0.17-0.03 0.28-0.06l0.16 0.83q-0.14 0.09-0.35 0.16-0.21 0.06-0.46 0.11-0.25 0.05-0.53 0.07-0.27 0.03-0.54 0.03-0.46 0-0.86-0.13-0.39-0.13-0.68-0.41-0.3-0.28-0.47-0.73-0.16-0.45-0.16-1.09v-3.73h-1.8v-0.91h1.8v-1.66zm9.54 8.53q-0.07-0.13-0.11-0.33-0.04-0.2-0.06-0.42-0.18 0.18-0.4 0.34-0.22 0.16-0.48 0.28-0.26 0.12-0.56 0.19-0.3 0.07-0.64 0.07-0.54 0-0.99-0.16-0.44-0.16-0.75-0.42-0.3-0.28-0.47-0.65-0.17-0.37-0.17-0.8 0-0.57 0.22-0.99 0.23-0.43 0.65-0.71 0.41-0.28 0.99-0.42 0.58-0.14 1.3-0.14h1.28v-0.54q0-0.31-0.12-0.56-0.11-0.25-0.32-0.42-0.21-0.18-0.51-0.27-0.3-0.1-0.68-0.1-0.35 0-0.62 0.09-0.28 0.09-0.47 0.24-0.19 0.14-0.3 0.35-0.1 0.19-0.1 0.41h-1.18q0.01-0.38 0.19-0.74 0.19-0.36 0.54-0.65 0.36-0.29 0.86-0.46 0.51-0.18 1.15-0.18 0.58 0 1.08 0.14 0.5 0.14 0.87 0.44 0.36 0.28 0.57 0.71 0.21 0.43 0.21 1.01v3.19q0 0.35 0.07 0.73 0.06 0.39 0.17 0.67v0.1zm-2.07-0.89q0.34 0 0.64-0.09 0.3-0.09 0.54-0.24 0.25-0.14 0.42-0.33 0.18-0.19 0.28-0.39v-1.39h-1.09q-1.03 0-1.6 0.3-0.57 0.31-0.57 0.96 0 0.26 0.08 0.47 0.09 0.22 0.26 0.38 0.18 0.15 0.44 0.24 0.26 0.09 0.6 0.09zm10.5-2.67h-4.85v-0.96h4.85zm4.73 0.35l-0.86 0.83v2.38h-1.18v-9.75h1.18v5.96l0.77-0.82 2.25-2.26h1.43l-2.78 2.86 3.2 4.01h-1.49zm8.79 3.33q-0.73 0-1.33-0.25-0.61-0.24-1.04-0.69-0.43-0.44-0.67-1.05-0.24-0.61-0.24-1.33v-0.27q0-0.83 0.26-1.48 0.27-0.66 0.71-1.11 0.44-0.46 1-0.7 0.57-0.24 1.16-0.24 0.74 0 1.29 0.26 0.56 0.25 0.93 0.71 0.36 0.45 0.54 1.07 0.19 0.61 0.19 1.33v0.53h-4.91q0.02 0.47 0.18 0.88 0.16 0.41 0.44 0.72 0.29 0.31 0.68 0.48 0.4 0.18 0.87 0.18 0.63 0 1.12-0.25 0.49-0.26 0.81-0.67l0.72 0.55q-0.17 0.26-0.43 0.51-0.26 0.23-0.59 0.41-0.34 0.19-0.77 0.3-0.42 0.11-0.92 0.11zm-0.15-6.16q-0.36 0-0.68 0.14-0.31 0.12-0.57 0.38-0.25 0.25-0.43 0.61-0.17 0.37-0.24 0.84h3.69v-0.09q-0.02-0.34-0.13-0.68-0.11-0.33-0.32-0.6-0.22-0.27-0.55-0.43-0.32-0.17-0.77-0.17zm7.45 3.6l0.3 0.83 2.1-5.26h1.31l-3.48 7.92q-0.12 0.27-0.31 0.57-0.19 0.3-0.46 0.55-0.26 0.26-0.62 0.43-0.35 0.17-0.82 0.17-0.08 0-0.18-0.02-0.1 0-0.2-0.02-0.11-0.01-0.19-0.03-0.09-0.02-0.15-0.03l0.19-0.96q0.04 0 0.12 0 0.08 0.01 0.16 0.02 0.08 0 0.16 0 0.07 0.01 0.12 0.01 0.24 0 0.44-0.13 0.2-0.14 0.35-0.32 0.16-0.19 0.27-0.38 0.11-0.2 0.18-0.33l0.47-0.91-2.96-6.54h1.31zm10.95-2.52h-5.67v-1.02h5.67zm0 2.63h-5.67v-1.01h5.67zm4.24-6.74l-0.13 2.35h-0.83l0.01-2.25v-0.79h0.95zm2.27 0l-0.13 2.34h-0.82v-2.24-0.8h0.96zm6.22 0.53v1.66h2.61v0.91h-2.61v3.73q0 0.4 0.1 0.66 0.1 0.26 0.28 0.42 0.18 0.16 0.4 0.22 0.24 0.06 0.5 0.06 0.19 0 0.39-0.02 0.21-0.02 0.4-0.05 0.19-0.04 0.36-0.07 0.17-0.04 0.28-0.06l0.16 0.83q-0.14 0.09-0.35 0.16-0.21 0.06-0.46 0.11-0.25 0.05-0.53 0.07-0.27 0.03-0.54 0.03-0.46 0-0.86-0.13-0.39-0.13-0.69-0.41-0.29-0.29-0.46-0.73-0.16-0.45-0.16-1.09v-3.73h-1.81v-0.91h1.81v-1.66zm8.06 8.66q-0.73 0-1.33-0.25-0.61-0.25-1.04-0.69-0.43-0.45-0.67-1.05-0.24-0.61-0.24-1.33v-0.27q0-0.83 0.26-1.48 0.27-0.66 0.71-1.11 0.44-0.46 1-0.7 0.57-0.24 1.16-0.24 0.74 0 1.29 0.26 0.56 0.25 0.93 0.71 0.36 0.45 0.54 1.06 0.19 0.62 0.19 1.34v0.52h-4.91q0.02 0.47 0.18 0.89 0.16 0.41 0.44 0.72 0.29 0.3 0.68 0.48 0.4 0.18 0.87 0.18 0.63 0 1.12-0.25 0.49-0.26 0.81-0.68l0.72 0.56q-0.17 0.26-0.43 0.5-0.26 0.24-0.59 0.42-0.34 0.19-0.77 0.29-0.42 0.12-0.92 0.12zm-0.15-6.16q-0.36 0-0.68 0.13-0.31 0.13-0.57 0.39-0.25 0.24-0.43 0.61-0.17 0.36-0.24 0.84h3.69v-0.09q-0.02-0.34-0.13-0.68-0.11-0.34-0.32-0.6-0.22-0.27-0.55-0.43-0.32-0.17-0.77-0.17zm9.49 4.21q0-0.21-0.09-0.37-0.08-0.18-0.28-0.32-0.19-0.13-0.52-0.25-0.32-0.12-0.8-0.22-0.59-0.12-1.08-0.29-0.48-0.17-0.83-0.4-0.35-0.24-0.54-0.56-0.19-0.33-0.19-0.75 0-0.42 0.2-0.78 0.2-0.37 0.55-0.64 0.36-0.28 0.85-0.43 0.49-0.16 1.08-0.16 0.64 0 1.14 0.16 0.51 0.17 0.87 0.46 0.35 0.29 0.54 0.68 0.2 0.39 0.2 0.84h-1.17q0-0.22-0.12-0.43-0.11-0.22-0.32-0.38-0.2-0.17-0.49-0.27-0.29-0.1-0.65-0.1-0.37 0-0.66 0.08-0.28 0.09-0.47 0.23-0.18 0.14-0.28 0.32-0.09 0.18-0.09 0.38 0 0.2 0.07 0.36 0.08 0.16 0.26 0.29 0.19 0.13 0.51 0.23 0.31 0.1 0.79 0.19 0.64 0.14 1.14 0.31 0.5 0.18 0.85 0.42 0.34 0.25 0.52 0.57 0.18 0.32 0.18 0.75 0 0.45-0.21 0.83-0.2 0.37-0.57 0.64-0.37 0.27-0.88 0.41-0.52 0.15-1.13 0.15-0.7 0-1.24-0.19-0.55-0.19-0.93-0.49-0.37-0.31-0.58-0.72-0.19-0.4-0.19-0.84h1.17q0.03 0.36 0.19 0.61 0.17 0.25 0.42 0.4 0.26 0.15 0.56 0.21 0.3 0.07 0.6 0.07 0.75 0 1.18-0.28 0.43-0.27 0.44-0.72zm6.02-6.71v1.66h2.61v0.91h-2.61v3.73q0 0.4 0.1 0.66 0.1 0.26 0.28 0.42 0.18 0.16 0.41 0.22 0.23 0.06 0.49 0.06 0.19 0 0.4-0.02 0.2-0.02 0.39-0.05 0.2-0.04 0.36-0.07 0.17-0.04 0.28-0.06l0.17 0.83q-0.15 0.09-0.36 0.16-0.21 0.06-0.46 0.11-0.25 0.05-0.52 0.07-0.28 0.03-0.55 0.03-0.46 0-0.86-0.13-0.39-0.13-0.68-0.41-0.29-0.29-0.47-0.73-0.16-0.45-0.16-1.09v-3.73h-1.8v-0.91h1.8v-1.66zm10.73 9.49h-5.82v-0.96h5.82zm4.16-4.16l-0.86 0.83v2.37h-1.18v-9.75h1.18v5.97l0.76-0.82 2.26-2.26h1.43l-2.78 2.86 3.2 4h-1.49zm8.79 3.34q-0.73 0-1.34-0.25-0.6-0.25-1.03-0.69-0.43-0.45-0.68-1.06-0.24-0.61-0.24-1.32v-0.27q0-0.83 0.27-1.49 0.27-0.65 0.7-1.11 0.45-0.45 1.01-0.69 0.56-0.25 1.15-0.25 0.75 0.01 1.3 0.26 0.56 0.26 0.92 0.72 0.37 0.45 0.55 1.06 0.18 0.62 0.18 1.33v0.53h-4.9q0.02 0.47 0.18 0.88 0.16 0.42 0.44 0.73 0.29 0.3 0.68 0.48 0.39 0.18 0.87 0.18 0.63 0 1.12-0.26 0.48-0.25 0.81-0.67l0.72 0.56q-0.18 0.26-0.44 0.5-0.25 0.24-0.59 0.42-0.33 0.18-0.76 0.29-0.42 0.12-0.92 0.12zm-0.16-6.16q-0.35 0-0.67 0.13-0.32 0.13-0.57 0.38-0.26 0.25-0.43 0.62-0.17 0.36-0.24 0.84h3.69v-0.09q-0.02-0.34-0.13-0.68-0.11-0.34-0.33-0.6-0.21-0.27-0.54-0.44-0.33-0.16-0.78-0.16zm7.46 3.59l0.3 0.83 2.09-5.26h1.32l-3.49 7.93q-0.12 0.27-0.31 0.56-0.18 0.3-0.45 0.56-0.26 0.25-0.62 0.42-0.36 0.17-0.82 0.17-0.08 0-0.18-0.01-0.1 0-0.21-0.02-0.1-0.02-0.19-0.04-0.09-0.02-0.14-0.03l0.19-0.96q0.04 0 0.12 0.01 0.07 0.01 0.16 0.01 0.08 0.01 0.16 0.01 0.07 0.01 0.12 0.01 0.24 0 0.43-0.14 0.21-0.13 0.36-0.32 0.16-0.18 0.27-0.38 0.11-0.19 0.17-0.32l0.47-0.91-2.95-6.55h1.31zm7.38-6.62l-0.13 2.35h-0.83l0.01-2.25v-0.79h0.95zm2.27 0l-0.14 2.35h-0.81v-2.25-0.79h0.95zm-145.12 25.56q0-0.76 0.19-1.4 0.19-0.65 0.55-1.12 0.36-0.46 0.87-0.72 0.51-0.26 1.14-0.26 0.61 0 1.07 0.21 0.46 0.2 0.8 0.6v-3.56h1.17v9.75h-1.08l-0.05-0.73q-0.34 0.42-0.82 0.64-0.47 0.21-1.11 0.21-0.62 0-1.13-0.26-0.5-0.27-0.85-0.74-0.36-0.47-0.56-1.1-0.19-0.65-0.19-1.38zm1.17 0.13q0 0.5 0.11 0.95 0.11 0.45 0.33 0.8 0.23 0.34 0.58 0.54 0.35 0.2 0.83 0.2 0.3 0 0.54-0.07 0.25-0.07 0.44-0.2 0.2-0.13 0.35-0.31 0.15-0.18 0.27-0.41v-3.18q-0.23-0.42-0.62-0.69-0.39-0.27-0.96-0.27-0.5 0-0.85 0.2-0.35 0.21-0.58 0.56-0.22 0.34-0.33 0.8-0.11 0.45-0.11 0.95zm11.37 3.36q-0.07-0.14-0.11-0.33-0.04-0.21-0.06-0.42-0.18 0.17-0.4 0.33-0.22 0.16-0.48 0.28-0.26 0.12-0.56 0.19-0.3 0.07-0.64 0.07-0.54 0-0.99-0.16-0.44-0.15-0.75-0.42-0.3-0.27-0.47-0.64-0.17-0.38-0.17-0.81 0-0.56 0.22-0.99 0.23-0.42 0.65-0.7 0.41-0.29 0.99-0.43 0.58-0.14 1.3-0.14h1.28v-0.54q0-0.31-0.11-0.56-0.12-0.24-0.33-0.42-0.21-0.17-0.51-0.27-0.3-0.09-0.68-0.09-0.35 0-0.62 0.09-0.28 0.08-0.47 0.23-0.19 0.15-0.3 0.35-0.1 0.2-0.1 0.41h-1.18q0.01-0.37 0.19-0.73 0.19-0.37 0.54-0.65 0.36-0.29 0.86-0.47 0.51-0.18 1.15-0.18 0.58 0 1.08 0.15 0.5 0.14 0.87 0.43 0.36 0.28 0.57 0.72 0.21 0.43 0.21 1v3.2q0 0.34 0.07 0.73 0.06 0.38 0.18 0.66v0.11zm-2.08-0.9q0.34 0 0.64-0.09 0.3-0.09 0.54-0.23 0.25-0.15 0.43-0.33 0.17-0.19 0.27-0.4v-1.39h-1.09q-1.03 0-1.6 0.31-0.57 0.3-0.57 0.96 0 0.25 0.08 0.47 0.09 0.21 0.26 0.37 0.18 0.15 0.44 0.24 0.26 0.09 0.6 0.09zm8.15-7.64v1.67h2.61v0.91h-2.61v3.73q0 0.4 0.1 0.66 0.1 0.26 0.28 0.42 0.18 0.15 0.41 0.21 0.23 0.07 0.49 0.07 0.19 0 0.4-0.02 0.2-0.03 0.39-0.06 0.2-0.03 0.36-0.06 0.17-0.04 0.28-0.07l0.17 0.83q-0.15 0.09-0.36 0.16-0.21 0.07-0.46 0.11-0.24 0.05-0.52 0.08-0.28 0.02-0.55 0.02-0.46 0-0.86-0.12-0.39-0.14-0.68-0.42-0.3-0.28-0.47-0.73-0.16-0.45-0.16-1.08v-3.73h-1.8v-0.91h1.8v-1.67zm9.54 8.54q-0.07-0.14-0.11-0.33-0.04-0.21-0.06-0.42-0.18 0.17-0.4 0.33-0.22 0.16-0.48 0.28-0.26 0.12-0.56 0.19-0.3 0.07-0.64 0.07-0.54 0-0.99-0.16-0.44-0.15-0.75-0.42-0.3-0.27-0.47-0.64-0.17-0.38-0.17-0.81 0-0.56 0.22-0.99 0.23-0.42 0.65-0.7 0.41-0.29 0.99-0.43 0.58-0.14 1.3-0.14h1.28v-0.54q0-0.31-0.11-0.56-0.12-0.24-0.33-0.42-0.21-0.17-0.51-0.27-0.3-0.09-0.68-0.09-0.34 0-0.62 0.09-0.28 0.08-0.47 0.23-0.19 0.15-0.3 0.35-0.1 0.2-0.1 0.41h-1.18q0.01-0.37 0.19-0.73 0.19-0.37 0.54-0.65 0.36-0.29 0.86-0.47 0.51-0.18 1.15-0.18 0.58 0 1.08 0.15 0.5 0.14 0.87 0.43 0.37 0.28 0.57 0.72 0.21 0.43 0.21 1v3.2q0 0.34 0.07 0.73 0.06 0.38 0.18 0.66v0.11zm-2.08-0.9q0.34 0 0.64-0.09 0.3-0.09 0.54-0.23 0.25-0.15 0.43-0.33 0.17-0.19 0.27-0.4v-1.39h-1.09q-1.03 0-1.6 0.31-0.57 0.3-0.57 0.96 0 0.25 0.08 0.47 0.09 0.21 0.26 0.37 0.18 0.15 0.44 0.24 0.26 0.09 0.6 0.09zm10.5-2.67h-4.85v-0.96h4.85zm8.47 0.2q0 0.74-0.18 1.38-0.17 0.64-0.52 1.1-0.34 0.47-0.85 0.74-0.5 0.27-1.15 0.27-0.62 0-1.11-0.21-0.47-0.2-0.81-0.58v3.3h-1.18v-9.51h1.07l0.06 0.75q0.34-0.42 0.83-0.65 0.48-0.22 1.13-0.22 0.66 0 1.16 0.26 0.51 0.26 0.85 0.72 0.35 0.46 0.52 1.11 0.18 0.64 0.18 1.41zm-1.17-0.13q0-0.51-0.12-0.96-0.1-0.45-0.34-0.8-0.23-0.34-0.58-0.55-0.36-0.2-0.85-0.2-0.57 0-0.96 0.27-0.38 0.26-0.6 0.67v3.31q0.22 0.4 0.6 0.66 0.39 0.26 0.97 0.26 0.49 0 0.84-0.21 0.36-0.21 0.59-0.56 0.23-0.34 0.33-0.8 0.12-0.46 0.12-0.96zm7.69-3.5q0.16 0 0.34 0.01 0.18 0 0.33 0.03 0.17 0.02 0.3 0.05 0.14 0.03 0.23 0.07l-0.16 1.15q-0.34-0.08-0.65-0.11-0.31-0.04-0.64-0.04-0.83 0-1.34 0.38-0.51 0.37-0.75 1.05v4.4h-1.18v-6.87h1.12l0.05 1.09q0.42-0.56 1.01-0.88 0.59-0.33 1.34-0.33zm2.97 3.49q0-0.74 0.22-1.37 0.21-0.65 0.61-1.12 0.41-0.46 0.99-0.73 0.57-0.27 1.3-0.27 0.73 0 1.31 0.27 0.58 0.27 0.98 0.73 0.41 0.47 0.62 1.12 0.22 0.63 0.22 1.37v0.14q0 0.75-0.22 1.38-0.21 0.64-0.62 1.1-0.4 0.47-0.98 0.74-0.57 0.27-1.3 0.27-0.73 0-1.31-0.27-0.58-0.27-0.99-0.74-0.4-0.46-0.61-1.1-0.22-0.63-0.22-1.38zm1.18 0.14q0 0.51 0.12 0.97 0.12 0.46 0.36 0.81 0.25 0.35 0.61 0.55 0.37 0.21 0.86 0.21 0.48 0 0.85-0.21 0.36-0.2 0.61-0.55 0.24-0.35 0.36-0.81 0.12-0.46 0.12-0.97v-0.14q0-0.5-0.12-0.96-0.12-0.46-0.37-0.81-0.24-0.35-0.61-0.55-0.36-0.21-0.85-0.21-0.49 0-0.85 0.21-0.36 0.2-0.61 0.55-0.24 0.35-0.36 0.81-0.12 0.46-0.12 0.96zm6.74-0.13q0-0.77 0.19-1.41 0.19-0.65 0.55-1.11 0.36-0.46 0.87-0.72 0.51-0.26 1.14-0.26 0.61 0 1.07 0.2 0.46 0.21 0.8 0.6v-3.56h1.17v9.75h-1.08l-0.05-0.72q-0.34 0.42-0.82 0.63-0.47 0.22-1.11 0.22-0.62 0-1.13-0.27-0.5-0.27-0.85-0.74-0.36-0.46-0.56-1.1-0.19-0.64-0.19-1.38zm1.17 0.14q0 0.5 0.11 0.95 0.11 0.45 0.33 0.79 0.23 0.34 0.58 0.55 0.35 0.19 0.84 0.19 0.29 0 0.54-0.07 0.24-0.07 0.43-0.19 0.2-0.14 0.35-0.31 0.15-0.19 0.27-0.41v-3.19q-0.23-0.41-0.62-0.68-0.38-0.28-0.96-0.28-0.5 0-0.85 0.21-0.35 0.2-0.58 0.55-0.22 0.34-0.33 0.8-0.11 0.45-0.11 0.95zm11.31 2.41q-0.34 0.51-0.85 0.8-0.52 0.28-1.19 0.28-0.54 0-0.98-0.17-0.44-0.17-0.75-0.52-0.31-0.36-0.48-0.91-0.16-0.55-0.16-1.32v-4.08h1.17v4.1q0 0.55 0.09 0.92 0.09 0.37 0.27 0.59 0.17 0.22 0.43 0.31 0.26 0.09 0.59 0.09 0.72 0 1.16-0.29 0.44-0.3 0.66-0.79v-4.93h1.18v6.87h-1.07zm6.28 0.12q0.32 0 0.62-0.1 0.3-0.1 0.54-0.28 0.23-0.18 0.37-0.42 0.15-0.25 0.15-0.54h1.11q0 0.46-0.24 0.88-0.23 0.41-0.61 0.73-0.39 0.31-0.89 0.5-0.5 0.18-1.05 0.18-0.78 0-1.36-0.28-0.59-0.28-0.98-0.74-0.39-0.48-0.58-1.1-0.2-0.62-0.2-1.3v-0.27q0-0.68 0.2-1.3 0.19-0.62 0.58-1.09 0.39-0.48 0.98-0.76 0.58-0.28 1.36-0.28 0.61 0 1.12 0.2 0.51 0.19 0.88 0.53 0.37 0.33 0.59 0.78 0.2 0.46 0.2 0.98h-1.11q0-0.31-0.14-0.58-0.12-0.28-0.34-0.49-0.23-0.21-0.54-0.33-0.3-0.12-0.66-0.12-0.55 0-0.92 0.22-0.37 0.21-0.6 0.57-0.22 0.35-0.33 0.79-0.09 0.43-0.09 0.88v0.27q0 0.45 0.09 0.89 0.11 0.44 0.33 0.79 0.23 0.35 0.59 0.58 0.38 0.21 0.93 0.21zm7.66-7.7v1.66h2.62v0.91h-2.62v3.73q0 0.4 0.1 0.66 0.11 0.26 0.28 0.42 0.18 0.15 0.41 0.21 0.23 0.07 0.5 0.07 0.19 0 0.39-0.02 0.2-0.03 0.39-0.06 0.2-0.03 0.36-0.06 0.18-0.04 0.28-0.07l0.17 0.84q-0.15 0.08-0.36 0.15-0.21 0.07-0.45 0.11-0.25 0.05-0.53 0.08-0.27 0.02-0.55 0.02-0.45 0-0.85-0.12-0.4-0.14-0.69-0.42-0.29-0.28-0.46-0.73-0.17-0.45-0.17-1.08v-3.73h-1.8v-0.91h1.8v-1.66zm10.69 3.58h-5.67v-1.03h5.67zm0 2.64h-5.67v-1.02h5.67zm4.25-6.74l-0.13 2.35h-0.83l0.01-2.25v-0.79h0.95zm2.26 0l-0.13 2.35h-0.82l0.01-2.25v-0.79h0.95zm6.22 0.52v1.67h2.62v0.9h-2.62v3.74q0 0.4 0.1 0.66 0.1 0.26 0.28 0.42 0.18 0.15 0.41 0.21 0.23 0.06 0.49 0.06 0.19 0.01 0.4-0.01 0.2-0.03 0.39-0.06 0.2-0.03 0.36-0.06 0.17-0.04 0.28-0.07l0.17 0.83q-0.15 0.09-0.36 0.16-0.21 0.07-0.46 0.11-0.24 0.05-0.52 0.08-0.28 0.02-0.55 0.02-0.46 0-0.86-0.13-0.39-0.13-0.68-0.41-0.29-0.28-0.46-0.73-0.17-0.45-0.17-1.08v-3.74h-1.8v-0.9h1.8v-1.67zm9.53 1.54q0.16 0 0.34 0.01 0.18 0.01 0.34 0.03 0.16 0.02 0.3 0.05 0.13 0.04 0.22 0.07l-0.15 1.15q-0.35-0.07-0.66-0.1-0.3-0.04-0.64-0.04-0.83 0-1.34 0.37-0.51 0.38-0.75 1.05v4.4h-1.18v-6.86h1.12l0.06 1.09q0.41-0.57 1-0.89 0.59-0.33 1.34-0.33zm7.82 6.99q-0.07-0.13-0.12-0.33-0.03-0.2-0.05-0.41-0.18 0.17-0.4 0.33-0.22 0.16-0.49 0.28-0.26 0.12-0.55 0.19-0.3 0.07-0.64 0.07-0.54 0-0.99-0.16-0.44-0.16-0.75-0.42-0.3-0.28-0.47-0.64-0.17-0.38-0.17-0.81 0-0.56 0.22-0.99 0.23-0.42 0.64-0.7 0.42-0.29 0.99-0.43 0.59-0.14 1.31-0.14h1.28v-0.54q0-0.31-0.12-0.56-0.11-0.24-0.32-0.42-0.21-0.17-0.51-0.27-0.3-0.09-0.68-0.09-0.35 0-0.63 0.08-0.27 0.09-0.46 0.24-0.19 0.15-0.3 0.35-0.1 0.2-0.1 0.41h-1.18q0.01-0.37 0.19-0.74 0.19-0.36 0.54-0.64 0.36-0.29 0.86-0.47 0.5-0.18 1.15-0.18 0.58 0 1.08 0.15 0.5 0.14 0.87 0.43 0.36 0.28 0.57 0.71 0.21 0.44 0.21 1.01v3.2q0 0.34 0.07 0.73 0.06 0.38 0.17 0.66v0.1zm-2.07-0.89q0.34 0 0.64-0.09 0.3-0.09 0.54-0.23 0.25-0.15 0.42-0.33 0.18-0.19 0.28-0.4v-1.39h-1.09q-1.03 0-1.6 0.31-0.57 0.3-0.57 0.96 0 0.25 0.08 0.46 0.09 0.22 0.26 0.38 0.17 0.15 0.43 0.24 0.27 0.09 0.61 0.09zm6.42-5.97l0.08 1.01q0.38-0.53 0.92-0.83 0.55-0.3 1.22-0.31 0.54 0 0.98 0.15 0.44 0.15 0.76 0.48 0.31 0.32 0.47 0.82 0.17 0.5 0.17 1.18v4.36h-1.17v-4.33q0-0.46-0.1-0.78-0.1-0.31-0.31-0.51-0.19-0.2-0.49-0.29-0.28-0.08-0.66-0.08-0.59 0-1.04 0.29-0.44 0.3-0.71 0.78v4.92h-1.17v-6.86zm11.32 5.04q-0.01-0.21-0.09-0.37-0.08-0.17-0.28-0.31-0.19-0.14-0.52-0.26-0.32-0.12-0.8-0.21-0.59-0.12-1.08-0.29-0.49-0.18-0.83-0.41-0.35-0.24-0.54-0.56-0.19-0.32-0.19-0.75 0-0.42 0.2-0.78 0.2-0.37 0.55-0.64 0.36-0.27 0.85-0.43 0.49-0.16 1.08-0.16 0.64 0 1.14 0.16 0.51 0.17 0.87 0.46 0.35 0.29 0.54 0.69 0.2 0.39 0.2 0.83h-1.17q0-0.22-0.12-0.43-0.11-0.21-0.32-0.38-0.2-0.16-0.49-0.26-0.29-0.1-0.65-0.11-0.37 0-0.66 0.09-0.28 0.08-0.47 0.22-0.18 0.14-0.28 0.32-0.09 0.19-0.09 0.38 0 0.21 0.07 0.37 0.08 0.15 0.26 0.28 0.19 0.13 0.5 0.23 0.32 0.1 0.8 0.2 0.64 0.13 1.14 0.31 0.5 0.17 0.85 0.42 0.34 0.24 0.52 0.56 0.18 0.32 0.18 0.75 0 0.46-0.21 0.83-0.2 0.38-0.57 0.64-0.37 0.27-0.88 0.42-0.52 0.14-1.13 0.14-0.7 0-1.24-0.18-0.55-0.19-0.93-0.5-0.37-0.31-0.58-0.72-0.19-0.4-0.19-0.84h1.17q0.03 0.36 0.19 0.61 0.17 0.25 0.42 0.4 0.25 0.15 0.56 0.22 0.31 0.06 0.6 0.06 0.75 0 1.18-0.27 0.43-0.28 0.44-0.73zm7.75 1.82q-0.07-0.13-0.11-0.33-0.04-0.2-0.06-0.41-0.18 0.17-0.4 0.33-0.22 0.16-0.48 0.28-0.26 0.12-0.56 0.19-0.3 0.07-0.63 0.07-0.55 0-1-0.16-0.43-0.16-0.74-0.42-0.31-0.28-0.48-0.64-0.17-0.38-0.17-0.81 0-0.56 0.23-0.99 0.23-0.42 0.64-0.7 0.41-0.29 0.99-0.43 0.58-0.14 1.3-0.14h1.28v-0.54q0-0.31-0.11-0.56-0.12-0.24-0.33-0.42-0.21-0.17-0.51-0.27-0.3-0.09-0.67-0.09-0.35 0-0.63 0.08-0.28 0.09-0.47 0.24-0.19 0.15-0.29 0.35-0.11 0.2-0.1 0.41h-1.19q0.01-0.37 0.19-0.74 0.19-0.36 0.54-0.64 0.36-0.29 0.86-0.47 0.51-0.18 1.15-0.18 0.58 0 1.09 0.15 0.5 0.14 0.86 0.43 0.37 0.28 0.58 0.71 0.21 0.44 0.21 1.01v3.2q0 0.34 0.06 0.73 0.06 0.38 0.18 0.66v0.1zm-2.08-0.89q0.34 0 0.64-0.09 0.3-0.09 0.54-0.23 0.25-0.15 0.43-0.33 0.17-0.19 0.28-0.4v-1.39h-1.1q-1.02 0-1.59 0.31-0.58 0.3-0.58 0.96 0 0.25 0.09 0.46 0.08 0.22 0.26 0.38 0.17 0.15 0.43 0.24 0.26 0.09 0.6 0.09zm8.3 0.07q0.31 0 0.61-0.1 0.31-0.1 0.54-0.28 0.24-0.19 0.38-0.43 0.14-0.24 0.15-0.53h1.11q-0.01 0.46-0.24 0.88-0.23 0.41-0.62 0.73-0.38 0.31-0.88 0.5-0.51 0.18-1.05 0.18-0.78 0-1.37-0.28-0.58-0.28-0.97-0.75-0.39-0.47-0.59-1.09-0.2-0.62-0.2-1.31v-0.26q0-0.68 0.2-1.3 0.2-0.63 0.59-1.1 0.39-0.47 0.97-0.75 0.59-0.28 1.37-0.28 0.61 0 1.12 0.2 0.51 0.19 0.88 0.52 0.37 0.33 0.58 0.79 0.21 0.46 0.21 0.98h-1.11q-0.01-0.31-0.14-0.59-0.13-0.28-0.35-0.49-0.22-0.2-0.53-0.33-0.31-0.12-0.66-0.12-0.55 0-0.92 0.23-0.37 0.21-0.6 0.57-0.23 0.35-0.33 0.78-0.09 0.44-0.09 0.89v0.26q0 0.46 0.09 0.9 0.1 0.44 0.32 0.79 0.23 0.35 0.6 0.57 0.37 0.22 0.93 0.22zm7.66-7.71v1.67h2.61v0.9h-2.61v3.74q0 0.4 0.1 0.66 0.1 0.26 0.28 0.42 0.18 0.15 0.41 0.21 0.23 0.06 0.49 0.06 0.19 0.01 0.4-0.01 0.2-0.03 0.39-0.06 0.19-0.03 0.36-0.06 0.17-0.04 0.28-0.07l0.16 0.83q-0.14 0.09-0.35 0.16-0.21 0.07-0.46 0.11-0.25 0.05-0.52 0.08-0.28 0.02-0.55 0.02-0.46 0-0.86-0.13-0.39-0.13-0.68-0.41-0.29-0.28-0.47-0.73-0.16-0.45-0.16-1.08v-3.74h-1.8v-0.9h1.8v-1.67zm5.21 1.67h3.51v5.85h2.24v1.01h-5.75v-1.01h2.34v-4.83h-2.34zm2.18-1.8q0-0.3 0.17-0.49 0.18-0.21 0.54-0.21 0.35 0 0.52 0.21 0.18 0.19 0.18 0.49 0 0.28-0.18 0.47-0.17 0.19-0.52 0.19-0.36 0-0.54-0.19-0.17-0.19-0.17-0.47zm5.11 5.17q0-0.74 0.22-1.38 0.22-0.64 0.61-1.11 0.41-0.47 0.99-0.74 0.58-0.27 1.3-0.27 0.73 0 1.31 0.27 0.58 0.27 0.98 0.74 0.41 0.47 0.62 1.11 0.22 0.64 0.22 1.38v0.14q0 0.74-0.22 1.38-0.21 0.63-0.62 1.1-0.4 0.47-0.98 0.74-0.57 0.26-1.3 0.26-0.73 0-1.31-0.26-0.58-0.27-0.99-0.74-0.39-0.47-0.61-1.1-0.22-0.64-0.22-1.38zm1.18 0.14q0 0.51 0.12 0.97 0.12 0.46 0.36 0.81 0.25 0.35 0.62 0.55 0.36 0.2 0.85 0.2 0.48 0 0.85-0.2 0.36-0.2 0.61-0.55 0.24-0.35 0.36-0.81 0.12-0.46 0.13-0.97v-0.14q-0.01-0.5-0.13-0.96-0.12-0.46-0.37-0.81-0.24-0.35-0.61-0.55-0.36-0.21-0.85-0.21-0.49 0-0.85 0.21-0.36 0.2-0.61 0.55-0.24 0.35-0.36 0.81-0.12 0.46-0.12 0.96zm8.01-3.51l0.09 1.01q0.37-0.53 0.92-0.83 0.54-0.3 1.22-0.31 0.54 0 0.97 0.15 0.45 0.16 0.76 0.48 0.31 0.32 0.48 0.82 0.17 0.5 0.17 1.19v4.36h-1.18v-4.34q0-0.46-0.1-0.77-0.1-0.32-0.3-0.52-0.2-0.19-0.49-0.28-0.29-0.09-0.66-0.09-0.59 0-1.04 0.3-0.45 0.29-0.71 0.77v4.93h-1.18v-6.87zm11.32 5.04q0-0.2-0.08-0.37-0.09-0.17-0.28-0.31-0.2-0.14-0.52-0.25-0.33-0.13-0.81-0.22-0.59-0.12-1.08-0.29-0.48-0.17-0.83-0.41-0.34-0.24-0.53-0.56-0.19-0.32-0.19-0.75 0-0.41 0.19-0.78 0.2-0.36 0.56-0.64 0.35-0.27 0.84-0.43 0.5-0.16 1.09-0.16 0.63 0 1.14 0.17 0.51 0.16 0.86 0.45 0.36 0.3 0.55 0.69 0.19 0.39 0.19 0.84h-1.17q0-0.23-0.11-0.43-0.12-0.22-0.32-0.39-0.21-0.16-0.5-0.26-0.28-0.1-0.64-0.1-0.38 0-0.66 0.08-0.28 0.08-0.47 0.22-0.19 0.14-0.28 0.32-0.1 0.19-0.1 0.39 0 0.2 0.08 0.36 0.07 0.16 0.26 0.28 0.19 0.13 0.5 0.23 0.32 0.1 0.8 0.2 0.63 0.13 1.14 0.31 0.5 0.17 0.84 0.42 0.34 0.24 0.52 0.56 0.18 0.33 0.18 0.75 0 0.46-0.21 0.83-0.2 0.38-0.57 0.64-0.37 0.27-0.88 0.42-0.51 0.14-1.12 0.14-0.7 0-1.25-0.18-0.54-0.19-0.92-0.5-0.38-0.31-0.58-0.71-0.2-0.41-0.2-0.85h1.18q0.02 0.36 0.19 0.61 0.17 0.25 0.42 0.4 0.25 0.15 0.55 0.22 0.31 0.06 0.61 0.06 0.74 0 1.17-0.27 0.43-0.27 0.44-0.73zm5.34-7.23l-0.13 2.35h-0.82v-2.25-0.79h0.95zm2.27 0l-0.13 2.35h-0.82v-2.25-0.8h0.96zm-207.59 25.57q0-0.77 0.19-1.41 0.2-0.64 0.55-1.11 0.36-0.46 0.87-0.72 0.51-0.26 1.14-0.26 0.61 0 1.07 0.21 0.46 0.2 0.8 0.59v-3.56h1.17v9.75h-1.07l-0.06-0.72q-0.34 0.42-0.81 0.63-0.48 0.22-1.12 0.22-0.62 0-1.12-0.27-0.51-0.26-0.86-0.73-0.36-0.47-0.55-1.11-0.2-0.64-0.2-1.38zm1.17 0.14q0 0.5 0.11 0.95 0.11 0.45 0.33 0.79 0.23 0.35 0.58 0.55 0.35 0.2 0.84 0.2 0.29 0 0.54-0.07 0.24-0.07 0.43-0.2 0.2-0.13 0.35-0.31 0.16-0.19 0.27-0.41v-3.18q-0.23-0.42-0.62-0.69-0.38-0.27-0.96-0.27-0.5 0-0.85 0.2-0.35 0.2-0.58 0.55-0.22 0.35-0.33 0.8-0.11 0.45-0.11 0.95zm11.37 3.36q-0.07-0.13-0.11-0.33-0.04-0.2-0.06-0.42-0.18 0.18-0.4 0.34-0.22 0.16-0.48 0.28-0.26 0.12-0.56 0.19-0.3 0.07-0.64 0.07-0.54 0-0.99-0.16-0.43-0.16-0.74-0.42-0.31-0.28-0.48-0.65-0.17-0.37-0.17-0.8 0-0.57 0.23-0.99 0.23-0.43 0.64-0.71 0.41-0.28 0.99-0.42 0.58-0.14 1.3-0.14h1.28v-0.54q0-0.31-0.11-0.56-0.12-0.25-0.33-0.42-0.21-0.18-0.51-0.27-0.3-0.1-0.67-0.1-0.35 0-0.63 0.09-0.28 0.09-0.47 0.24-0.19 0.14-0.29 0.35-0.11 0.19-0.11 0.41h-1.18q0.01-0.38 0.19-0.74 0.19-0.36 0.54-0.65 0.36-0.29 0.86-0.46 0.51-0.18 1.15-0.18 0.58 0 1.09 0.14 0.5 0.14 0.86 0.44 0.37 0.28 0.58 0.71 0.21 0.43 0.21 1.01v3.19q0 0.35 0.06 0.73 0.06 0.39 0.18 0.67v0.1zm-2.08-0.89q0.34 0 0.64-0.09 0.3-0.09 0.54-0.24 0.25-0.14 0.43-0.33 0.17-0.19 0.28-0.39v-1.39h-1.1q-1.02 0-1.59 0.3-0.58 0.31-0.58 0.96 0 0.26 0.09 0.47 0.08 0.22 0.26 0.38 0.17 0.15 0.43 0.24 0.26 0.09 0.6 0.09zm8.15-7.64v1.66h2.62v0.91h-2.62v3.73q0 0.41 0.1 0.66 0.11 0.27 0.28 0.42 0.18 0.16 0.41 0.22 0.23 0.06 0.49 0.06 0.19 0 0.4-0.02 0.2-0.02 0.39-0.05 0.2-0.03 0.36-0.07 0.17-0.03 0.28-0.06l0.17 0.83q-0.15 0.09-0.36 0.16-0.21 0.06-0.46 0.11-0.24 0.05-0.52 0.07-0.28 0.03-0.55 0.03-0.46 0-0.85-0.13-0.4-0.13-0.69-0.41-0.29-0.28-0.46-0.73-0.17-0.45-0.17-1.09v-3.73h-1.8v-0.91h1.8v-1.66zm9.54 8.53q-0.07-0.13-0.11-0.33-0.04-0.2-0.06-0.42-0.18 0.18-0.4 0.34-0.21 0.16-0.48 0.28-0.26 0.12-0.56 0.19-0.3 0.07-0.63 0.07-0.55 0-1-0.16-0.43-0.16-0.74-0.42-0.31-0.28-0.48-0.65-0.17-0.37-0.17-0.8 0-0.57 0.23-0.99 0.23-0.43 0.64-0.71 0.41-0.28 0.99-0.42 0.58-0.14 1.3-0.14h1.28v-0.54q0-0.31-0.11-0.56-0.12-0.25-0.33-0.42-0.21-0.18-0.51-0.27-0.3-0.1-0.67-0.1-0.35 0-0.63 0.09-0.28 0.09-0.46 0.24-0.2 0.14-0.3 0.35-0.11 0.19-0.1 0.41h-1.19q0.01-0.38 0.19-0.74 0.19-0.36 0.54-0.65 0.36-0.29 0.86-0.46 0.51-0.18 1.15-0.18 0.58 0 1.09 0.14 0.5 0.14 0.86 0.44 0.37 0.28 0.58 0.71 0.21 0.43 0.21 1.01v3.19q0 0.35 0.06 0.73 0.06 0.39 0.18 0.67v0.1zm-2.08-0.89q0.34 0 0.64-0.09 0.3-0.09 0.54-0.24 0.25-0.14 0.43-0.33 0.18-0.19 0.28-0.39v-1.39h-1.09q-1.03 0-1.6 0.3-0.58 0.31-0.58 0.96 0 0.26 0.09 0.47 0.08 0.22 0.26 0.38 0.17 0.15 0.43 0.24 0.26 0.09 0.6 0.09zm10.51-2.67h-4.86v-0.96h4.86zm5.7 3.68q-0.72 0-1.33-0.24-0.6-0.25-1.03-0.69-0.44-0.45-0.68-1.06-0.24-0.61-0.24-1.33v-0.26q0-0.83 0.27-1.49 0.26-0.66 0.7-1.11 0.45-0.45 1.01-0.7 0.56-0.24 1.15-0.24 0.74 0 1.3 0.26 0.55 0.26 0.92 0.71 0.37 0.46 0.55 1.07 0.18 0.62 0.18 1.33v0.53h-4.9q0.01 0.47 0.17 0.88 0.17 0.42 0.45 0.73 0.28 0.3 0.68 0.48 0.39 0.18 0.87 0.18 0.62 0 1.11-0.26 0.49-0.25 0.82-0.67l0.71 0.56q-0.17 0.26-0.43 0.5-0.25 0.23-0.59 0.42-0.34 0.18-0.76 0.29-0.43 0.11-0.93 0.11zm-0.15-6.15q-0.35 0-0.67 0.13-0.32 0.13-0.57 0.38-0.26 0.25-0.43 0.62-0.18 0.36-0.25 0.84h3.7v-0.09q-0.02-0.35-0.13-0.68-0.11-0.34-0.33-0.61-0.21-0.26-0.54-0.43-0.33-0.16-0.78-0.16zm5.98-0.84l0.08 1.01q0.38-0.53 0.92-0.83 0.55-0.3 1.22-0.31 0.54 0 0.98 0.15 0.44 0.16 0.76 0.48 0.31 0.32 0.47 0.83 0.17 0.49 0.17 1.18v4.36h-1.17v-4.34q0-0.45-0.1-0.77-0.1-0.32-0.31-0.52-0.2-0.19-0.49-0.28-0.28-0.09-0.66-0.09-0.59 0-1.04 0.3-0.44 0.29-0.71 0.77v4.93h-1.17v-6.87zm9.44 5.18l0.11 0.42 0.11-0.42 1.93-5.18h1.2l-2.8 6.87h-0.9l-2.82-6.87h1.2zm10.78-3.26h-5.67v-1.03h5.67zm0 2.64h-5.67v-1.02h5.67zm4.25-6.74l-0.13 2.35h-0.83l0.01-2.25v-0.79h0.95zm2.27 0l-0.14 2.35h-0.82l0.01-2.25v-0.79h0.95zm8.01 7.23q0-0.2-0.09-0.37-0.08-0.17-0.27-0.31-0.2-0.14-0.52-0.26-0.33-0.12-0.81-0.21-0.59-0.12-1.08-0.29-0.48-0.17-0.83-0.41-0.35-0.24-0.53-0.56-0.2-0.32-0.2-0.75 0-0.42 0.2-0.78 0.2-0.37 0.55-0.64 0.36-0.27 0.85-0.43 0.49-0.16 1.08-0.16 0.64 0 1.15 0.17 0.5 0.16 0.86 0.45 0.35 0.3 0.55 0.69 0.19 0.39 0.19 0.84h-1.17q0-0.23-0.12-0.44-0.11-0.21-0.31-0.38-0.21-0.16-0.5-0.26-0.29-0.1-0.65-0.1-0.37 0-0.66 0.08-0.28 0.08-0.47 0.22-0.18 0.14-0.28 0.32-0.09 0.19-0.09 0.38 0 0.21 0.08 0.37 0.07 0.16 0.26 0.28 0.19 0.13 0.5 0.23 0.31 0.1 0.8 0.2 0.63 0.13 1.13 0.31 0.5 0.17 0.85 0.42 0.34 0.24 0.52 0.56 0.18 0.33 0.18 0.75 0 0.46-0.21 0.83-0.2 0.38-0.57 0.64-0.37 0.27-0.88 0.42-0.52 0.14-1.12 0.14-0.7 0-1.25-0.18-0.55-0.19-0.93-0.5-0.37-0.31-0.57-0.71-0.2-0.41-0.2-0.85h1.17q0.03 0.36 0.19 0.61 0.18 0.25 0.42 0.4 0.26 0.15 0.56 0.22 0.31 0.06 0.61 0.06 0.74 0 1.17-0.27 0.43-0.27 0.44-0.73zm7.75 1.83q-0.07-0.14-0.11-0.33-0.04-0.21-0.06-0.42-0.17 0.17-0.4 0.33-0.21 0.16-0.48 0.28-0.26 0.12-0.56 0.19-0.3 0.07-0.63 0.07-0.55 0-0.99-0.16-0.44-0.15-0.75-0.42-0.31-0.27-0.48-0.64-0.16-0.38-0.16-0.81 0-0.56 0.22-0.99 0.23-0.42 0.64-0.7 0.41-0.29 0.99-0.43 0.58-0.14 1.3-0.14h1.28v-0.54q0-0.31-0.11-0.56-0.11-0.24-0.32-0.42-0.21-0.17-0.52-0.27-0.3-0.09-0.67-0.09-0.35 0-0.63 0.09-0.27 0.08-0.46 0.23-0.19 0.15-0.3 0.35-0.1 0.2-0.1 0.41h-1.18q0-0.37 0.19-0.73 0.19-0.37 0.54-0.65 0.35-0.29 0.85-0.47 0.51-0.18 1.15-0.18 0.59 0 1.09 0.15 0.5 0.14 0.86 0.43 0.37 0.28 0.58 0.72 0.21 0.43 0.21 1v3.2q0 0.34 0.06 0.73 0.06 0.38 0.18 0.66v0.11zm-2.08-0.9q0.35 0 0.64-0.09 0.3-0.09 0.54-0.23 0.25-0.15 0.43-0.33 0.18-0.19 0.28-0.4v-1.39h-1.09q-1.03 0-1.6 0.31-0.57 0.3-0.57 0.96 0 0.25 0.08 0.47 0.09 0.21 0.26 0.37 0.17 0.15 0.43 0.24 0.26 0.09 0.6 0.09zm6.43-5.97l0.08 1.01q0.37-0.53 0.92-0.83 0.55-0.3 1.22-0.31 0.54 0 0.98 0.15 0.44 0.16 0.75 0.48 0.31 0.32 0.48 0.82 0.17 0.5 0.17 1.18v4.37h-1.17v-4.34q0-0.46-0.11-0.77-0.1-0.32-0.3-0.52-0.2-0.19-0.49-0.28-0.29-0.09-0.66-0.09-0.59 0-1.04 0.3-0.45 0.29-0.71 0.77v4.93h-1.18v-6.87zm6.54 3.37q-0.01-0.76 0.19-1.4 0.19-0.65 0.55-1.12 0.36-0.46 0.87-0.72 0.5-0.26 1.13-0.26 0.62 0 1.08 0.21 0.46 0.2 0.8 0.6v-3.56h1.17v9.75h-1.08l-0.05-0.73q-0.34 0.42-0.82 0.64-0.47 0.21-1.11 0.21-0.62 0-1.13-0.26-0.5-0.27-0.86-0.74-0.35-0.47-0.55-1.1-0.2-0.65-0.19-1.38zm1.17 0.13q0 0.5 0.11 0.95 0.11 0.45 0.33 0.8 0.23 0.34 0.58 0.54 0.34 0.2 0.83 0.2 0.3 0 0.54-0.07 0.24-0.07 0.44-0.2 0.2-0.13 0.35-0.31 0.15-0.18 0.27-0.41v-3.18q-0.23-0.42-0.62-0.69-0.39-0.27-0.96-0.27-0.5 0-0.85 0.2-0.35 0.21-0.58 0.56-0.22 0.34-0.33 0.8-0.11 0.45-0.11 0.95zm12.68 0q0 0.73-0.18 1.38-0.18 0.63-0.52 1.1-0.35 0.47-0.85 0.74-0.5 0.26-1.16 0.26-0.66 0-1.15-0.23-0.48-0.24-0.82-0.68l-0.06 0.79h-1.08v-9.75h1.18v3.61q0.33-0.41 0.81-0.64 0.47-0.22 1.11-0.22 0.66 0 1.17 0.26 0.5 0.26 0.85 0.72 0.34 0.47 0.52 1.12 0.18 0.64 0.18 1.4zm-1.18-0.13q0-0.5-0.1-0.95-0.1-0.46-0.31-0.8-0.22-0.35-0.57-0.55-0.35-0.21-0.85-0.21-0.31 0-0.56 0.09-0.26 0.07-0.46 0.22-0.2 0.14-0.35 0.34-0.16 0.19-0.26 0.41v3.01q0.11 0.23 0.26 0.42 0.16 0.19 0.36 0.34 0.21 0.14 0.46 0.23 0.25 0.07 0.56 0.07 0.48 0 0.82-0.19 0.35-0.21 0.57-0.55 0.22-0.34 0.32-0.79 0.11-0.45 0.11-0.96zm2.83 0q0-0.74 0.22-1.38 0.21-0.64 0.61-1.11 0.41-0.47 0.99-0.74 0.57-0.27 1.3-0.27 0.73 0 1.31 0.27 0.58 0.27 0.98 0.74 0.41 0.47 0.62 1.11 0.22 0.64 0.22 1.38v0.14q0 0.74-0.22 1.38-0.21 0.63-0.62 1.1-0.4 0.47-0.98 0.74-0.58 0.26-1.3 0.26-0.73 0-1.31-0.26-0.58-0.27-0.99-0.74-0.4-0.47-0.61-1.1-0.22-0.64-0.22-1.38zm1.18 0.14q0 0.51 0.12 0.97 0.12 0.46 0.36 0.8 0.25 0.35 0.61 0.56 0.37 0.2 0.86 0.2 0.48 0 0.85-0.2 0.36-0.21 0.61-0.56 0.24-0.34 0.36-0.8 0.12-0.46 0.12-0.97v-0.14q0-0.5-0.12-0.96-0.12-0.46-0.37-0.81-0.24-0.35-0.61-0.56-0.36-0.2-0.85-0.2-0.49 0-0.85 0.2-0.36 0.21-0.61 0.56-0.24 0.35-0.36 0.81-0.12 0.46-0.12 0.96zm9.8-0.97l1.83-2.54h1.38l-2.56 3.39 2.63 3.48h-1.36l-1.9-2.62-1.9 2.62h-1.37l2.63-3.48-2.56-3.39h1.36zm7.07-4.74l-0.13 2.35h-0.82v-2.25-0.79h0.95zm2.27 0l-0.13 2.35h-0.82v-2.25-0.79h0.96zm3.46 3.29v-1.22l5.61 2.4v0.93l-5.61 2.41v-1.22l4.11-1.55 0.38-0.11-0.38-0.12zm-154.71 21.56l-0.33 0.11 0.33 0.11 3.89 1.5v1.25l-5.38-2.41v-0.93l5.38-2.4v1.25zm7.88 5h-1.05l3.86-10.04h1.05zm10.82-2.61q0-0.21-0.08-0.38-0.09-0.17-0.28-0.31-0.2-0.14-0.52-0.25-0.33-0.12-0.81-0.22-0.59-0.12-1.08-0.29-0.48-0.17-0.83-0.4-0.34-0.25-0.53-0.56-0.19-0.33-0.19-0.75 0-0.42 0.19-0.78 0.2-0.37 0.56-0.64 0.35-0.28 0.84-0.44 0.49-0.15 1.09-0.15 0.63 0 1.14 0.16 0.51 0.17 0.86 0.46 0.36 0.29 0.55 0.68 0.19 0.39 0.19 0.84h-1.17q0-0.22-0.11-0.43-0.12-0.22-0.32-0.38-0.21-0.17-0.5-0.27-0.28-0.1-0.64-0.1-0.38 0-0.67 0.08-0.27 0.09-0.46 0.22-0.19 0.15-0.28 0.33-0.1 0.18-0.1 0.38 0 0.2 0.08 0.36 0.07 0.16 0.26 0.29 0.19 0.12 0.5 0.23 0.32 0.1 0.8 0.19 0.63 0.14 1.13 0.31 0.51 0.18 0.85 0.42 0.34 0.24 0.52 0.57 0.18 0.32 0.18 0.75 0 0.45-0.21 0.83-0.2 0.37-0.57 0.64-0.37 0.27-0.88 0.41-0.51 0.15-1.12 0.15-0.7 0-1.25-0.19-0.54-0.19-0.92-0.49-0.38-0.31-0.58-0.72-0.2-0.4-0.2-0.84h1.18q0.02 0.36 0.19 0.61 0.17 0.24 0.42 0.4 0.25 0.15 0.55 0.21 0.31 0.07 0.61 0.07 0.74 0 1.17-0.28 0.43-0.27 0.44-0.72zm6.17 1q0.32 0 0.61-0.11 0.31-0.1 0.54-0.28 0.24-0.18 0.38-0.42 0.15-0.25 0.15-0.53h1.11q0 0.45-0.24 0.87-0.23 0.41-0.61 0.73-0.39 0.31-0.89 0.5-0.5 0.19-1.05 0.19-0.78 0-1.37-0.28-0.58-0.28-0.97-0.75-0.39-0.48-0.59-1.09-0.19-0.62-0.19-1.31v-0.27q0-0.68 0.19-1.3 0.2-0.62 0.59-1.09 0.39-0.48 0.97-0.76 0.59-0.27 1.37-0.27 0.61 0 1.12 0.19 0.51 0.19 0.88 0.53 0.37 0.33 0.58 0.79 0.21 0.45 0.21 0.97h-1.11q-0.01-0.31-0.14-0.58-0.13-0.28-0.35-0.49-0.22-0.21-0.53-0.33-0.31-0.12-0.66-0.12-0.55 0-0.92 0.22-0.37 0.22-0.6 0.57-0.23 0.35-0.33 0.79-0.09 0.44-0.09 0.88v0.27q0 0.45 0.09 0.89 0.1 0.44 0.33 0.8 0.22 0.35 0.59 0.57 0.38 0.22 0.93 0.22zm9.38-6.17q0.17 0 0.34 0.01 0.18 0 0.34 0.03 0.16 0.02 0.3 0.05 0.14 0.03 0.23 0.07l-0.16 1.15q-0.35-0.08-0.66-0.11-0.3-0.04-0.64-0.04-0.82 0-1.34 0.38-0.5 0.37-0.74 1.05v4.4h-1.19v-6.87h1.12l0.06 1.09q0.42-0.56 1-0.88 0.59-0.33 1.34-0.33zm3.49 0.12h3.51v5.85h2.24v1.02h-5.75v-1.02h2.34v-4.83h-2.34zm2.19-1.8q-0.01-0.29 0.17-0.49 0.17-0.2 0.53-0.2 0.35 0 0.53 0.2 0.17 0.2 0.17 0.49 0 0.29-0.17 0.48-0.18 0.19-0.53 0.19-0.36 0-0.53-0.19-0.18-0.19-0.17-0.48zm11.23 5.31q0 0.74-0.18 1.38-0.17 0.64-0.52 1.11-0.34 0.47-0.85 0.73-0.5 0.27-1.15 0.27-0.63 0-1.11-0.2-0.47-0.21-0.82-0.59v3.3h-1.17v-9.51h1.07l0.06 0.75q0.34-0.42 0.82-0.64 0.49-0.23 1.13-0.23 0.66 0 1.17 0.26 0.51 0.26 0.85 0.72 0.35 0.47 0.52 1.11 0.18 0.64 0.18 1.41zm-1.17-0.13q0-0.5-0.12-0.95-0.11-0.46-0.34-0.8-0.23-0.35-0.58-0.56-0.36-0.2-0.85-0.2-0.57 0-0.96 0.27-0.38 0.26-0.61 0.67v3.31q0.23 0.4 0.61 0.66 0.38 0.26 0.97 0.26 0.49 0 0.84-0.21 0.36-0.2 0.59-0.55 0.22-0.35 0.33-0.81 0.12-0.46 0.12-0.96zm5.96-5.04v1.66h2.62v0.91h-2.62v3.73q0 0.41 0.11 0.66 0.1 0.27 0.27 0.42 0.18 0.16 0.41 0.22 0.24 0.06 0.5 0.06 0.19 0 0.39-0.02 0.2-0.02 0.39-0.05 0.2-0.03 0.36-0.07 0.18-0.03 0.28-0.06l0.17 0.83q-0.15 0.09-0.36 0.16-0.21 0.06-0.45 0.11-0.25 0.05-0.53 0.07-0.27 0.03-0.55 0.03-0.45 0-0.85-0.13-0.4-0.13-0.69-0.41-0.29-0.28-0.46-0.73-0.17-0.45-0.17-1.09v-3.73h-1.8v-0.91h1.8v-1.66zm5.06 2.76v-1.21l5.6 2.4v0.93l-5.6 2.4v-1.22l4.1-1.55 0.38-0.1-0.38-0.12z"/>
			</g>
		</g>
	</g>
</svg>