<svg width="107" height="15" viewBox="0 0 107 15" fill="none" xmlns="http://www.w3.org/2000/svg">
<g id="Combined Shape 2">
<path id="Combined Shape" fill-rule="evenodd" clip-rule="evenodd" d="M2.75692 2.87525C1.35958 2.56015 0.302128 1.29977 0 0.0393869L17.2591 0V0.0393869C16.9569 1.29977 15.9373 2.48138 14.5021 2.87525H10.1968L9.97023 2.95402V14.2581H7.28884V2.95402L7.06224 2.87525H2.75692ZM26.6535 2.86732H36.941C38.3889 2.59238 39.4558 1.25691 39.7225 0H23.8339C24.1388 1.25691 25.2056 2.5531 26.6535 2.86732ZM103.239 2.86732H92.951C91.5412 2.5531 90.4744 1.25691 90.1695 0H106.02C105.715 1.25691 104.686 2.59238 103.239 2.86732ZM90.5887 14.2581V5.65609H105.677V14.2581H103.01V8.52342H93.2558V14.2581H90.5887ZM82.4729 14.2581C83.8065 13.6689 84.5304 12.6476 84.8353 11.4693H72.8331V0.0392784H70.1279V14.2581H82.4729ZM59.6498 2.82805H50.1243L50.1624 5.65609H62.5075V14.2581H46.6952C47.3429 12.8833 48.6384 11.8228 50.1624 11.3907H59.8403V8.44486H47.4953V0.0392784H62.5837C62.2789 1.25691 61.0977 2.39598 59.6498 2.82805ZM36.941 8.48414H26.6535C25.2056 8.16991 24.1388 6.87372 23.8339 5.61681H39.7225C39.4558 6.87372 38.3889 8.20919 36.941 8.48414ZM26.6535 14.2581H36.941C38.3889 13.9831 39.4558 12.6476 39.7225 11.3907H23.8339C24.1388 12.6476 25.2056 13.9831 26.6535 14.2581Z" fill="white"/>
</g>
</svg>
