<svg width="113" height="22" viewBox="0 0 113 22" fill="none" xmlns="http://www.w3.org/2000/svg">
<path fill-rule="evenodd" clip-rule="evenodd" d="M11.9572 0V2.86477L12.5238 2.82926C19.8067 2.58066 24.5637 8.81924 24.5637 8.81924C24.5637 8.81924 19.1103 15.4722 13.4327 15.4722C12.9369 15.4722 12.453 15.4248 11.969 15.3419V17.1176C12.3704 17.165 12.7835 17.2005 13.1848 17.2005C18.4729 17.2005 22.2973 14.4896 26.0037 11.2934C26.2807 11.5177 26.9446 11.8843 27.6376 12.2669C28.4804 12.7322 29.3661 13.2212 29.6511 13.5071C26.1336 16.4665 17.9299 18.846 13.2793 18.846C12.8307 18.846 12.4058 18.8223 11.9808 18.7749V21.2727H32.0709V0H11.9572ZM11.9572 6.34512V4.4283L11.969 4.42738V4.42664C12.154 4.41505 12.3389 4.4037 12.5238 4.4037C17.7647 4.23797 21.1996 8.92579 21.1996 8.92579C21.1996 8.92579 17.4932 14.0871 13.5153 14.0871C12.9842 14.0871 12.4648 14.0042 11.969 13.8385V8.01427C13.8916 8.24832 14.3703 9.05952 15.4344 10.8628C15.5005 10.9748 15.5689 11.0907 15.64 11.2105L18.3667 8.91395C18.3667 8.91395 16.3718 6.29777 13.0196 6.29777C12.6655 6.28593 12.3113 6.30961 11.9572 6.34512ZM11.9572 6.34512V8.00243H11.9454C9.90337 7.75383 8.29806 9.67157 8.29806 9.67157C8.29806 9.67157 9.20695 12.9033 11.9572 13.8385V15.3538C7.07047 14.4778 5.71303 9.37563 5.71303 9.37563C5.71303 9.37563 8.06198 6.77129 11.9572 6.34512ZM11.969 4.42664L11.9572 4.42738V4.4283C6.16945 4.88304 3.28145 9.16254 3.28145 9.16254C3.28145 9.16254 5.48876 16.3126 11.9572 17.1176V18.7749C3.13981 17.9463 0 8.83108 0 8.83108C0 8.83108 5.54778 3.38564 11.969 2.86477V4.42664ZM37.8272 4.09091V17.9882H41.817V7.19751L44.928 7.20928C45.9492 7.20928 46.6617 7.45639 47.1485 7.97416C47.7779 8.63313 48.0272 9.70397 48.0272 11.6456V17.9882H51.8983V10.3159C51.8983 4.83226 48.3716 4.09091 44.928 4.09091H37.8272ZM68.9379 4.11444V18H72.8921V4.11444H68.9379ZM75.3145 18V4.11444H80.8598C84.0183 4.11444 86.132 4.491 87.5806 6.43263C88.4 7.51523 88.8631 9.25681 88.8631 11.2102C88.8631 13.3401 88.3168 15.2935 87.4619 16.176C86.2626 17.4352 85.1464 18 81.7266 18H75.3145ZM79.233 7.1269H80.931C83.4009 7.1269 84.992 8.22127 84.992 11.069C84.992 13.9167 83.4009 15.0228 80.931 15.0228H79.233V7.1269ZM59.9372 15.117L63.2383 4.11444H67.2755L62.7158 18H57.0161L52.5039 4.11444H56.7786L59.9372 15.117ZM90.7155 18H94.6696V4.11444H90.7155V18ZM96.2845 17.9882L101.806 4.11444H107.09L112.659 17.9765H108.42L107.589 15.5288H101.058L100.179 17.9882H96.2845ZM104.371 6.64444L106.77 13.1401H101.901L104.371 6.64444Z" fill="white"/>
</svg>
