<svg width="120" height="26" viewBox="0 0 120 26" fill="none" xmlns="http://www.w3.org/2000/svg">
<g id="Combined Shape 3">
<path id="Combined Shape" fill-rule="evenodd" clip-rule="evenodd" d="M12.3279 12.5806H0V0H12.3279V12.5806ZM119.17 11.7932V9.67856H116.586V6.39111L116.499 6.41833L114.073 7.17299L114.025 7.18776V9.67867H110.195V8.29102C110.195 7.64488 110.337 7.15042 110.617 6.82067C110.895 6.49486 111.293 6.32923 111.801 6.32923C112.166 6.32923 112.543 6.41658 112.923 6.58885L113.019 6.63212V4.40513L112.974 4.38838C112.619 4.2588 112.137 4.19355 111.539 4.19355C110.786 4.19355 110.101 4.36023 109.504 4.69057C108.906 5.02137 108.436 5.49361 108.107 6.09404C107.779 6.69377 107.613 7.38643 107.613 8.15295V9.67856H105.814V11.7932H107.613V20.7017H110.195V11.7932H114.025V17.4544C114.025 19.786 115.107 20.9675 117.241 20.9675C117.591 20.9675 117.96 20.9258 118.337 20.844C118.721 20.76 118.982 20.6761 119.136 20.5866L119.17 20.5661V18.4319L119.065 18.5025C118.925 18.5975 118.75 18.675 118.545 18.7327C118.34 18.7915 118.168 18.8209 118.035 18.8209C117.535 18.8209 117.166 18.684 116.936 18.4138C116.704 18.1411 116.586 17.6644 116.586 16.9974V11.7932H119.17ZM100.047 18.8212C99.1095 18.8212 98.3705 18.5053 97.8497 17.883C97.3257 17.2576 97.0602 16.3659 97.0602 15.233C97.0602 14.0641 97.3257 13.1493 97.8499 12.5128C98.371 11.8805 99.103 11.5596 100.026 11.5596C100.921 11.5596 101.634 11.8661 102.145 12.4711C102.658 13.0792 102.918 13.9867 102.918 15.1691C102.918 16.3662 102.673 17.2856 102.19 17.9007C101.711 18.5111 100.99 18.8212 100.047 18.8212ZM95.9403 10.9961C96.953 9.94562 98.3733 9.41301 100.162 9.41301C101.846 9.41301 103.182 9.92247 104.132 10.9276C105.082 11.9322 105.563 13.3308 105.563 15.0837C105.563 16.8583 105.05 18.2984 104.038 19.3622C103.026 20.4272 101.633 20.9673 99.9001 20.9673C98.2366 20.9673 96.892 20.4548 95.904 19.4431C94.916 18.4317 94.4151 17.0435 94.4151 15.3176C94.4151 13.5005 94.9282 12.0466 95.9403 10.9961ZM90.2515 9.41301C89.0351 9.41301 88.0289 9.72927 87.2603 10.3528C86.4869 10.9801 86.0947 11.8028 86.0947 12.7984C86.0947 13.3159 86.1794 13.7756 86.346 14.1655C86.5136 14.5566 86.773 14.901 87.1177 15.1901C87.4597 15.4768 87.9877 15.7771 88.6874 16.0827C89.2755 16.3287 89.7142 16.5368 89.9928 16.7008C90.2651 16.8615 90.4584 17.0231 90.5676 17.1805C90.6737 17.3345 90.7274 17.5453 90.7274 17.8053C90.7274 18.5459 90.1818 18.9063 89.0591 18.9063C88.6427 18.9063 88.1677 18.8179 87.6474 18.6436C87.1308 18.472 86.6432 18.2207 86.2017 17.8985L86.0944 17.8203V20.3475L86.1338 20.3662C86.4992 20.5376 86.9599 20.6822 87.5029 20.7959C88.0448 20.9098 88.5372 20.9677 88.965 20.9677C90.2849 20.9677 91.3479 20.65 92.1235 20.0227C92.9041 19.3911 93.2997 18.5489 93.2997 17.519C93.2997 16.7759 93.0867 16.1388 92.667 15.6249C92.2501 15.1152 91.5265 14.6472 90.5173 14.2336C89.7134 13.9056 89.1983 13.6333 88.9858 13.4243C88.781 13.2224 88.6769 12.9368 88.6769 12.5752C88.6769 12.2546 88.8053 11.9978 89.0689 11.7898C89.3345 11.5808 89.7042 11.4745 90.1679 11.4745C90.5981 11.4745 91.0384 11.5436 91.4762 11.679C91.9137 11.8144 92.2979 11.9957 92.6187 12.2175L92.7242 12.2908V9.89351L92.6837 9.87583C92.3877 9.74683 91.9975 9.63645 91.5236 9.54689C91.0518 9.4579 90.6238 9.41301 90.2515 9.41301ZM77.1655 17.883C77.6862 18.5053 78.4254 18.8212 79.3625 18.8212C80.3057 18.8212 81.0265 18.5111 81.5061 17.9007C81.989 17.2856 82.234 16.3662 82.234 15.1691C82.234 13.9867 81.9736 13.0792 81.4604 12.4711C80.9497 11.8661 80.2369 11.5596 79.3418 11.5596C78.4186 11.5596 77.6868 11.8805 77.1661 12.5128C76.6418 13.1493 76.3764 14.0641 76.3764 15.233C76.3764 16.3662 76.6414 17.2576 77.1655 17.883ZM79.4776 9.41301C77.689 9.41301 76.2685 9.94562 75.2564 10.9961C74.2443 12.0466 73.7309 13.5005 73.7309 15.3176C73.7309 17.0442 74.2321 18.4317 75.2201 19.4431C76.2081 20.4548 77.5526 20.9673 79.216 20.9673C80.9492 20.9673 82.3416 20.4272 83.3539 19.3622C84.3658 18.2984 84.8788 16.8583 84.8788 15.0837C84.8788 13.3308 84.3975 11.9322 83.4479 10.9276C82.4977 9.92247 81.1618 9.41301 79.4776 9.41301ZM69.8109 9.67856V11.5875H69.838C70.0764 10.968 70.3881 10.4713 70.8194 10.1089C71.3107 9.6967 71.8844 9.48733 72.5254 9.48733C72.9507 9.48733 73.2868 9.53909 73.5243 9.64168L73.5656 9.65971V12.2738L73.4584 12.1948C73.3403 12.1083 73.1401 12.026 72.8636 11.9503C72.5843 11.8741 72.3263 11.8356 72.0966 11.8356C71.4187 11.8356 70.8634 12.1335 70.4468 12.7214C70.0248 13.3163 69.8109 14.104 69.8109 15.0628V20.7015H67.26V9.67856H69.8109ZM62.6917 9.41301C61.5214 9.41301 60.4776 9.66809 59.5897 10.1709C58.7 10.6749 58.0119 11.3945 57.5438 12.3094C57.0777 13.2221 56.8411 14.2883 56.8411 15.4773C56.8411 16.5188 57.0705 17.4745 57.524 18.3169C57.9777 19.1607 58.6199 19.8207 59.4328 20.2786C60.2446 20.7358 61.1828 20.9676 62.2216 20.9676C63.4339 20.9676 64.469 20.7213 65.2988 20.2354L65.3324 20.2159V17.8403L65.2251 17.9199C64.8492 18.1983 64.4292 18.4204 63.9771 18.5805C63.5263 18.7404 63.1152 18.8212 62.7548 18.8212C61.7538 18.8212 60.9503 18.5029 60.367 17.8752C59.7825 17.2468 59.4861 16.3643 59.4861 15.2538C59.4861 14.1364 59.7952 13.2312 60.4044 12.5633C61.0116 11.8974 61.8167 11.5596 62.7969 11.5596C63.6353 11.5596 64.4524 11.8482 65.2254 12.4182L65.3324 12.4971V9.99412L65.2978 9.97435C65.0069 9.80883 64.6102 9.67216 64.1177 9.56852C63.6272 9.46511 63.1475 9.41301 62.6917 9.41301ZM52.5333 9.67867H55.0842V20.7015H52.5333V9.67867ZM53.8348 4.98287C53.415 4.98287 53.0488 5.12815 52.7479 5.41603C52.4458 5.70473 52.2926 6.06822 52.2926 6.49719C52.2926 6.91942 52.444 7.27628 52.7432 7.5573C53.0405 7.8375 53.4079 7.97952 53.8349 7.97952C54.2619 7.97952 54.6306 7.8375 54.9314 7.55776C55.2342 7.27628 55.3878 6.91953 55.3878 6.49719C55.3878 6.08322 55.2383 5.72346 54.9439 5.42766C54.6497 5.13245 54.2764 4.98287 53.8348 4.98287ZM47.4701 20.7015V8.86539H47.3861L42.7662 20.7015H40.9199L36.2267 8.86423H36.1427V20.7014H33.6963V5.3203H37.4461L41.8905 16.745L46.4703 5.3203H50.0734V20.7015H47.4701ZM13.1498 12.5806H25.4777V0H13.1498V12.5806ZM12.3279 26H0V13.4194H12.3279V26ZM13.1498 26H25.4777V13.4194H13.1498V26Z" fill="white"/>
</g>
</svg>
