<svg width="108" height="14" viewBox="0 0 108 14" fill="none" xmlns="http://www.w3.org/2000/svg">
<g id="Shape 2">
<path id="Shape" fill-rule="evenodd" clip-rule="evenodd" d="M46.4318 9.01182H53.5385L49.7806 3.02218L42.8836 13.8516H39.7448L48.1337 0.843057C48.4984 0.317577 49.1063 0 49.7806 0C50.4327 0 51.0406 0.306547 51.3944 0.821205L59.8165 13.8516H56.6777L55.1968 11.4317H48.0014L46.4318 9.01182ZM79.0373 11.4315V0.131318H76.3737V12.5376C76.3737 12.8771 76.5062 13.2057 76.7604 13.4575C77.0146 13.7093 77.3572 13.8516 77.733 13.8516H89.88L91.4496 11.4317H79.0371L79.0373 11.4315ZM39.6563 4.77406C39.6563 7.33632 37.5563 9.40577 34.9698 9.40577L34.97 9.40619H33.7541L39.1037 13.8519H35.2351L27.2839 6.98628L34.7931 6.9971C36.031 6.9971 37.0257 6.00067 37.0257 4.77448C37.0257 3.54808 36.031 2.55144 34.7931 2.55144H25.9796V13.8519H23.3168V0.13111H34.9698C37.5563 0.13111 39.6563 2.21159 39.6563 4.77406ZM6.92585 13.8516C3.10266 13.8519 0 10.7858 0 6.9971C0 3.20824 3.10266 0.131526 6.92585 0.131526H14.9756C18.7996 0.131526 21.8999 3.20824 21.8999 6.9971C21.8999 10.7858 18.7996 13.8516 14.9753 13.8516H6.92585ZM19.2796 6.99689C19.2796 9.44969 17.2735 11.4317 14.7966 11.4317H14.7964H7.10378C4.62795 11.4317 2.62077 9.44969 2.62077 6.9971C2.62077 4.54431 4.62795 2.55144 7.10399 2.55144H14.7966C17.2735 2.55144 19.2796 4.54431 19.2796 6.99689ZM65.3761 13.8516C61.5521 13.8516 58.4461 10.7858 58.4461 6.9971C58.4461 3.20824 61.5521 0.131526 65.3761 0.131526H74.937L73.3783 2.55144H65.553C63.0772 2.55144 61.0656 4.54431 61.0656 6.9971C61.0656 9.44969 63.0772 11.4317 65.553 11.4317H75.1578L73.5882 13.8516H65.3761ZM93.6383 8.20144C94.1687 10.074 95.9041 11.4317 97.9488 11.4317H107.553L105.984 13.8514H97.7718C93.9475 13.8514 90.8417 10.7855 90.8417 6.99668C90.8417 3.20803 93.9475 0.13111 97.7718 0.13111H107.343L105.763 2.55144H97.9488C95.9041 2.55144 94.1687 3.91997 93.6383 5.78152H106.592L105.023 8.20144H93.6383Z" fill="white"/>
</g>
</svg>
